<svg width="419" height="149" viewBox="0 0 419 149" fill="none" xmlns="http://www.w3.org/2000/svg">
<path d="M416.19 24.7726C416.786 25.3486 417.735 25.333 418.311 24.7376C418.887 24.1422 418.872 23.1926 418.276 22.6166L416.19 24.7726ZM137.986 127.39L136.727 128.205L137.986 127.39ZM3.07098 32.6673C2.24551 32.5973 1.51964 33.2098 1.44969 34.0353L0.309886 47.4871C0.239942 48.3125 0.852416 49.0384 1.67789 49.1084C2.50335 49.1783 3.22923 48.5658 3.29917 47.7404L4.31234 35.7832L16.2695 36.7964C17.095 36.8663 17.8208 36.2538 17.8908 35.4284C17.9607 34.6029 17.3482 33.877 16.5228 33.8071L3.07098 32.6673ZM3.90278 37.4056C4.49113 37.9889 5.44087 37.9847 6.02408 37.3963C6.60729 36.808 6.60312 35.8582 6.01477 35.275L3.90278 37.4056ZM10.4265 39.023C9.7595 38.5317 8.82049 38.6742 8.32919 39.3412C7.83789 40.0082 7.98034 40.9472 8.64736 41.4385L10.4265 39.023ZM13.8209 44.8118C14.5374 45.2276 15.4554 44.9839 15.8712 44.2674C16.2871 43.5509 16.0434 42.633 15.3269 42.2171L13.8209 44.8118ZM20.5489 44.9552C19.8007 44.5995 18.9059 44.9177 18.5502 45.6659C18.1945 46.414 18.5126 47.3089 19.2608 47.6646L20.5489 44.9552ZM24.8787 50.1122C25.6478 50.4199 26.5208 50.0459 26.8286 49.2767C27.1363 48.5076 26.7623 47.6346 25.9931 47.3269L24.8787 50.1122ZM31.5999 49.4037C30.8164 49.1346 29.9631 49.5516 29.6939 50.3351C29.4248 51.1186 29.8418 51.9719 30.6253 52.241L31.5999 49.4037ZM36.3901 54.0906C37.1836 54.3286 38.0198 53.8784 38.2579 53.0849C38.4959 52.2914 38.0456 51.4552 37.2521 51.2171L36.3901 54.0906ZM42.982 52.833C42.1813 52.6205 41.3599 53.0974 41.1475 53.8981C40.935 54.6988 41.4119 55.5202 42.2126 55.7326L42.982 52.833ZM48.107 57.2104C48.9131 57.4015 49.7215 56.9029 49.9126 56.0968C50.1036 55.2907 49.6051 54.4824 48.799 54.2913L48.107 57.2104ZM54.6588 55.61C53.8487 55.4368 53.0515 55.9531 52.8783 56.7632C52.7051 57.5734 53.2214 58.3705 54.0315 58.5437L54.6588 55.61ZM59.9301 59.7467C60.7433 59.9049 61.5308 59.3741 61.6891 58.5609C61.8474 57.7477 61.3165 56.9602 60.5033 56.8019L59.9301 59.7467ZM66.4125 57.9031C65.597 57.7575 64.8178 58.3006 64.6722 59.1161C64.5266 59.9317 65.0697 60.7108 65.8852 60.8564L66.4125 57.9031ZM71.8447 61.8791C72.6621 62.0141 73.4341 61.4608 73.569 60.6435C73.7039 59.8261 73.1507 59.0541 72.3333 58.9192L71.8447 61.8791ZM78.2495 59.8616C77.4307 59.7356 76.6649 60.2972 76.5389 61.116C76.4129 61.9348 76.9746 62.7007 77.7934 62.8267L78.2495 59.8616ZM83.7799 63.7187C84.5998 63.8371 85.3605 63.2684 85.4789 62.4485C85.5974 61.6286 85.0287 60.8679 84.2088 60.7495L83.7799 63.7187ZM90.1487 61.5839C89.3279 61.4717 88.5715 62.046 88.4592 62.8668C88.347 63.6876 88.9213 64.444 89.7421 64.5563L90.1487 61.5839ZM95.722 65.3548C96.5434 65.4621 97.2963 64.8831 97.4035 64.0617C97.5108 63.2402 96.9318 62.4873 96.1104 62.3801L95.722 65.3548ZM102.08 63.1444C101.258 63.0411 100.508 63.6237 100.405 64.4456C100.302 65.2676 100.884 66.0177 101.706 66.121L102.08 63.1444ZM107.683 66.861C108.505 66.9615 109.253 66.3763 109.354 65.554C109.454 64.7316 108.869 63.9836 108.047 63.8832L107.683 66.861ZM114.024 64.6056C113.202 64.507 112.455 65.094 112.357 65.9165C112.258 66.7391 112.845 67.4858 113.668 67.5843L114.024 64.6056ZM119.647 68.2963C120.47 68.3938 121.216 67.806 121.314 66.9833C121.411 66.1607 120.823 65.4147 120.001 65.3172L119.647 68.2963ZM125.983 66.0257C125.16 65.9282 124.414 66.5161 124.316 67.3387C124.219 68.1614 124.807 68.9074 125.629 69.0049L125.983 66.0257ZM131.602 69.7157C132.424 69.8141 133.171 69.2271 133.269 68.4046C133.368 67.582 132.781 66.8354 131.958 66.7369L131.602 69.7157ZM137.949 67.4605C137.127 67.3602 136.379 67.9454 136.278 68.7677C136.178 69.59 136.763 70.338 137.585 70.4384L137.949 67.4605ZM143.543 71.1761C144.365 71.2794 145.115 70.6969 145.218 69.875C145.322 69.053 144.739 68.3029 143.917 68.1995L143.543 71.1761ZM149.909 68.9678C149.088 68.8602 148.335 69.439 148.227 70.2604C148.12 71.0818 148.698 71.8349 149.52 71.9424L149.909 68.9678ZM155.481 72.7418C156.301 72.8547 157.058 72.2809 157.171 71.4602C157.284 70.6395 156.71 69.8827 155.889 69.7698L155.481 72.7418ZM161.842 70.613C161.022 70.4933 160.261 71.0608 160.141 71.8805C160.021 72.7003 160.589 73.4618 161.409 73.5816L161.842 70.613ZM167.374 74.4833C168.193 74.6115 168.96 74.052 169.088 73.2336C169.217 72.4151 168.657 71.6477 167.839 71.5195L167.374 74.4833ZM173.792 72.4895C172.975 72.3509 172.201 72.9007 172.062 73.7174C171.924 74.5342 172.473 75.3086 173.29 75.4472L173.792 72.4895ZM179.177 76.4916C179.992 76.6428 180.775 76.1051 180.926 75.2906C181.077 74.4761 180.54 73.6932 179.725 73.542L179.177 76.4916ZM185.694 74.7077C184.883 74.5408 184.09 75.0634 183.923 75.8748C183.756 76.6863 184.279 77.4794 185.09 77.6462L185.694 74.7077ZM190.936 78.9178C191.744 79.1038 192.549 78.6001 192.735 77.7928C192.921 76.9855 192.417 76.1803 191.61 75.9944L190.936 78.9178ZM197.463 77.4297C196.662 77.2202 195.842 77.7001 195.632 78.5016C195.423 79.3031 195.903 80.1227 196.704 80.3322L197.463 77.4297ZM202.463 81.9485C203.256 82.1879 204.093 81.7391 204.332 80.946C204.572 80.1529 204.123 79.3159 203.33 79.0765L202.463 81.9485ZM209.144 80.9802C208.363 80.7025 207.506 81.11 207.228 81.8905C206.95 82.671 207.358 83.5288 208.138 83.8066L209.144 80.9802ZM213.662 85.9662C214.423 86.294 215.305 85.943 215.633 85.1822C215.961 84.4214 215.61 83.5389 214.849 83.2111L213.662 85.9662ZM220.392 85.8831C219.664 85.4885 218.753 85.759 218.359 86.4874C217.964 87.2158 218.235 88.1262 218.963 88.5208L220.392 85.8831ZM223.902 91.5953C224.574 92.0804 225.511 91.9292 225.996 91.2576C226.481 90.5861 226.33 89.6484 225.659 89.1634L223.902 91.5953ZM230.399 93.2776C229.832 92.6742 228.882 92.6453 228.279 93.2129C227.675 93.7805 227.646 94.7298 228.214 95.3332L230.399 93.2776ZM231.478 99.8447C231.863 100.578 232.769 100.861 233.503 100.476C234.237 100.092 234.52 99.1851 234.135 98.4514L231.478 99.8447ZM236.174 104.583C236.044 103.765 235.276 103.207 234.457 103.336C233.639 103.466 233.081 104.234 233.21 105.053L236.174 104.583ZM233.31 110.848C233.245 111.674 233.861 112.397 234.687 112.462C235.513 112.527 236.235 111.911 236.301 111.085L233.31 110.848ZM235.249 117.433C235.456 116.631 234.973 115.813 234.171 115.606C233.369 115.399 232.551 115.882 232.344 116.684L235.249 117.433ZM230.348 122.226C229.995 122.975 230.316 123.869 231.066 124.222C231.815 124.575 232.709 124.253 233.062 123.504L230.348 122.226ZM229.77 129.063C230.256 128.393 230.107 127.455 229.437 126.968C228.767 126.481 227.829 126.63 227.342 127.301L229.77 129.063ZM223.456 131.762C222.861 132.338 222.845 133.288 223.421 133.883C223.997 134.479 224.947 134.494 225.542 133.918L223.456 131.762ZM220.595 138.004C221.272 137.526 221.432 136.59 220.954 135.913C220.476 135.237 219.54 135.076 218.863 135.554L220.595 138.004ZM213.758 138.667C213.024 139.052 212.741 139.958 213.126 140.692C213.511 141.426 214.417 141.708 215.151 141.324L213.758 138.667ZM209.355 143.943C210.128 143.644 210.512 142.776 210.214 142.003C209.916 141.23 209.047 140.846 208.274 141.144L209.355 143.943ZM202.541 143.026C201.742 143.245 201.272 144.07 201.492 144.869C201.711 145.668 202.536 146.138 203.335 145.919L202.541 143.026ZM197.167 147.311C197.982 147.165 198.525 146.385 198.379 145.57C198.232 144.754 197.453 144.212 196.637 144.358L197.167 147.311ZM190.631 145.173C189.806 145.25 189.2 145.981 189.277 146.806C189.354 147.631 190.086 148.237 190.91 148.16L190.631 145.173ZM184.61 148.493C185.439 148.483 186.101 147.803 186.091 146.974C186.08 146.146 185.4 145.483 184.571 145.494L184.61 148.493ZM178.505 145.331C177.679 145.276 176.964 145.901 176.909 146.728C176.853 147.554 177.479 148.269 178.305 148.324L178.505 145.331ZM172.031 147.65C172.85 147.772 173.614 147.207 173.736 146.387C173.858 145.568 173.293 144.805 172.474 144.683L172.031 147.65ZM166.526 143.534C165.72 143.342 164.911 143.839 164.718 144.645C164.526 145.451 165.023 146.26 165.829 146.452L166.526 143.534ZM159.746 144.696C160.53 144.964 161.382 144.546 161.65 143.762C161.918 142.978 161.5 142.125 160.716 141.857L159.746 144.696ZM155.131 139.615C154.381 139.264 153.488 139.588 153.137 140.339C152.787 141.089 153.111 141.982 153.861 142.333L155.131 139.615ZM148.256 139.281C148.957 139.724 149.883 139.515 150.326 138.814C150.768 138.114 150.559 137.188 149.859 136.745L148.256 139.281ZM145.071 133.205C144.446 132.662 143.498 132.729 142.955 133.355C142.412 133.981 142.479 134.928 143.105 135.471L145.071 133.205ZM138.626 130.835C139.144 131.482 140.088 131.586 140.734 131.068C141.381 130.55 141.485 129.606 140.967 128.96L138.626 130.835ZM137.796 124.071C137.418 123.334 136.514 123.043 135.777 123.421C135.04 123.799 134.749 124.703 135.126 125.44L137.796 124.071ZM132.891 119.628C133.102 120.429 133.922 120.907 134.723 120.696C135.525 120.486 136.003 119.665 135.792 118.864L132.891 119.628ZM134.987 113.342C134.958 112.514 134.264 111.865 133.436 111.893C132.609 111.921 131.96 112.615 131.988 113.443L134.987 113.342ZM132.424 107.218C132.285 108.035 132.834 108.81 133.651 108.949C134.468 109.088 135.243 108.539 135.382 107.722L132.424 107.218ZM136.828 102.191C137.102 101.409 136.689 100.553 135.907 100.28C135.125 100.006 134.27 100.419 133.996 101.201L136.828 102.191ZM136.404 95.5773C136.03 96.3168 136.327 97.219 137.067 97.5924C137.806 97.9657 138.708 97.6689 139.082 96.9294L136.404 95.5773ZM141.946 91.9406C142.393 91.2435 142.191 90.3155 141.494 89.868C140.797 89.4205 139.869 89.6229 139.421 90.32L141.946 91.9406ZM142.921 85.3508C142.417 86.0085 142.542 86.95 143.2 87.4537C143.857 87.9574 144.799 87.8326 145.303 87.1748L142.921 85.3508ZM149.067 82.6026C149.614 81.9807 149.554 81.0329 148.932 80.4856C148.31 79.9382 147.362 79.9987 146.815 80.6205L149.067 82.6026ZM150.872 76.2659C150.292 76.8567 150.3 77.8064 150.89 78.3872C151.481 78.9679 152.431 78.9598 153.012 78.3691L150.872 76.2659ZM157.246 74.2677C157.854 73.7052 157.891 72.7562 157.328 72.148C156.766 71.5398 155.817 71.5027 155.209 72.0652L157.246 74.2677ZM159.72 68.0654C159.089 68.6025 159.013 69.5492 159.55 70.18C160.087 70.8107 161.034 70.8867 161.665 70.3497L159.72 68.0654ZM166.198 66.6302C166.847 66.116 166.957 65.1726 166.443 64.5231C165.929 63.8736 164.985 63.7639 164.336 64.2781L166.198 66.6302ZM169.148 60.5953C168.482 61.0883 168.342 62.0277 168.835 62.6934C169.328 63.3592 170.268 63.4992 170.933 63.0062L169.148 60.5953ZM175.682 59.595C176.361 59.1211 176.528 58.1861 176.054 57.5066C175.58 56.8271 174.645 56.6603 173.966 57.1342L175.682 59.595ZM178.979 53.7374C178.287 54.1931 178.096 55.1234 178.552 55.8152C179.007 56.507 179.938 56.6985 180.629 56.2427L178.979 53.7374ZM185.555 53.0826C186.258 52.6436 186.472 51.7182 186.032 51.0156C185.593 50.3131 184.668 50.0996 183.965 50.5387L185.555 53.0826ZM189.125 47.3956C188.412 47.8187 188.178 48.739 188.601 49.4513C189.024 50.1636 189.945 50.398 190.657 49.975L189.125 47.3956ZM195.731 47.0326C196.452 46.6244 196.706 45.7091 196.298 44.9882C195.89 44.2673 194.974 44.0138 194.253 44.4219L195.731 47.0326ZM199.528 41.5059C198.799 41.8995 198.527 42.8095 198.921 43.5385C199.314 44.2674 200.224 44.5392 200.953 44.1456L199.528 41.5059ZM206.154 41.4005C206.89 41.0206 207.179 40.1159 206.799 39.3797C206.419 38.6435 205.514 38.3546 204.778 38.7345L206.154 41.4005ZM210.14 36.0297C209.397 36.3961 209.091 37.2955 209.458 38.0385C209.824 38.7814 210.724 39.0867 211.467 38.7203L210.14 36.0297ZM216.783 36.1559C217.532 35.8024 217.853 34.9085 217.5 34.1593C217.146 33.41 216.252 33.0892 215.503 33.4426L216.783 36.1559ZM220.939 30.9345C220.184 31.2752 219.848 32.1636 220.189 32.9187C220.529 33.6738 221.418 34.0098 222.173 33.6691L220.939 30.9345ZM227.59 31.2788C228.351 30.9507 228.702 30.068 228.373 29.3073C228.045 28.5467 227.163 28.1961 226.402 28.5243L227.59 31.2788ZM231.906 26.2026C231.14 26.5184 230.775 27.3952 231.091 28.1611C231.407 28.927 232.284 29.2919 233.05 28.9761L231.906 26.2026ZM238.553 26.7584C239.324 26.4549 239.703 25.584 239.399 24.8131C239.096 24.0423 238.225 23.6634 237.454 23.9669L238.553 26.7584ZM243.023 21.8251C242.248 22.1163 241.855 22.9811 242.146 23.7567C242.438 24.5322 243.302 24.9248 244.078 24.6336L243.023 21.8251ZM249.652 22.5906C250.432 22.3117 250.838 21.4532 250.559 20.6732C250.28 19.8931 249.422 19.4869 248.642 19.7658L249.652 22.5906ZM254.276 17.8009C253.492 18.0675 253.072 18.9194 253.339 19.7038C253.606 20.4881 254.458 20.9079 255.242 20.6413L254.276 17.8009ZM260.87 18.7782C261.658 18.5241 262.092 17.6789 261.838 16.8904C261.583 16.1019 260.738 15.6687 259.95 15.9227L260.87 18.7782ZM265.653 14.1354C264.86 14.3768 264.413 15.2149 264.655 16.0074C264.896 16.7999 265.734 17.2466 266.527 17.0052L265.653 14.1354ZM272.206 15.3255C273.003 15.097 273.463 14.2663 273.235 13.47C273.006 12.6737 272.175 12.2134 271.379 12.4418L272.206 15.3255ZM277.14 10.8404C276.34 11.0556 275.866 11.8786 276.081 12.6786C276.297 13.4786 277.12 13.9527 277.92 13.7375L277.14 10.8404ZM283.653 12.247C284.457 12.0455 284.945 11.2307 284.743 10.4271C284.542 9.62361 283.727 9.13562 282.923 9.33719L283.653 12.247ZM288.729 7.93421C287.922 8.12172 287.42 8.92787 287.608 9.7348C287.795 10.5417 288.601 11.0439 289.408 10.8564L288.729 7.93421ZM295.198 9.56573C296.008 9.39284 296.525 8.5959 296.352 7.78572C296.179 6.97553 295.382 6.4589 294.572 6.63179L295.198 9.56573ZM300.411 5.44226C299.598 5.6 299.066 6.38716 299.224 7.20043C299.382 8.0137 300.169 8.54511 300.982 8.38738L300.411 5.44226ZM306.829 7.3123C307.645 7.17052 308.192 6.39393 308.05 5.57772C307.908 4.76152 307.131 4.21478 306.315 4.35656L306.829 7.3123ZM312.19 3.39701C311.371 3.52215 310.809 4.28747 310.934 5.10639C311.059 5.92531 311.825 6.48772 312.644 6.36258L312.19 3.39701ZM318.532 5.5271C319.354 5.41967 319.933 4.66669 319.825 3.84525C319.718 3.02382 318.965 2.445 318.143 2.55243L318.532 5.5271ZM324.062 1.84578C323.238 1.93458 322.643 2.67428 322.731 3.49793C322.82 4.32158 323.56 4.9173 324.384 4.82849L324.062 1.84578ZM330.294 4.26285C331.119 4.19403 331.733 3.46899 331.664 2.64342C331.595 1.81786 330.87 1.2044 330.045 1.27322L330.294 4.26285ZM336 0.852848C335.173 0.900435 334.541 1.60948 334.589 2.43653C334.636 3.26359 335.345 3.89548 336.173 3.84789L336 0.852848ZM342.093 3.58858C342.921 3.56395 343.572 2.87272 343.547 2.04465C343.523 1.21659 342.832 0.56528 342.003 0.589906L342.093 3.58858ZM347.982 0.499992C347.154 0.499957 346.482 1.1715 346.482 1.99993C346.482 2.82836 347.154 3.49996 347.982 3.49999L347.982 0.499992ZM353.898 3.59493C354.726 3.62186 355.419 2.97247 355.446 2.14449C355.473 1.3165 354.824 0.623448 353.996 0.596519L353.898 3.59493ZM359.973 0.894766C359.146 0.8387 358.431 1.46328 358.374 2.28981C358.318 3.11634 358.943 3.83182 359.77 3.88789L359.973 0.894766ZM365.66 4.40083C366.484 4.489 367.223 3.89271 367.311 3.06898C367.399 2.24526 366.803 1.50603 365.979 1.41787L365.66 4.40083ZM371.912 2.17854C371.092 2.05546 370.328 2.6198 370.205 3.43903C370.082 4.25826 370.647 5.02216 371.466 5.14525L371.912 2.17854ZM377.291 6.16037C378.104 6.32234 378.893 5.79503 379.055 4.98259C379.217 4.17016 378.69 3.38024 377.878 3.21827L377.291 6.16037ZM383.699 4.53484C382.896 4.33069 382.08 4.81606 381.875 5.61894C381.671 6.42182 382.157 7.23817 382.96 7.44232L383.699 4.53484ZM388.647 9.06644C389.436 9.31794 390.28 8.88193 390.532 8.0926C390.783 7.30327 390.347 6.45952 389.558 6.20802L388.647 9.06644ZM395.233 8.21988C394.462 7.91715 393.592 8.29687 393.289 9.068C392.986 9.83914 393.366 10.7097 394.137 11.0124L395.233 8.21988ZM399.496 13.3432C400.242 13.7019 401.139 13.3873 401.497 12.6406C401.856 11.8939 401.541 10.9977 400.795 10.639L399.496 13.3432ZM406.16 13.4882C405.445 13.0695 404.527 13.3096 404.108 14.0244C403.689 14.7393 403.929 15.6582 404.644 16.0768L406.16 13.4882ZM409.501 19.2175C410.175 19.6986 411.112 19.5419 411.593 18.8675C412.074 18.193 411.917 17.2563 411.243 16.7752L409.501 19.2175ZM416.038 20.5597C415.414 20.0148 414.466 20.079 413.922 20.7031C413.377 21.3271 413.441 22.2747 414.065 22.8195L416.038 20.5597ZM1.79791 35.1292C2.45631 35.9095 3.1587 36.6681 3.90278 37.4056L6.01477 35.275C5.33063 34.5969 4.68896 33.9036 4.09076 33.1946L1.79791 35.1292ZM8.64736 41.4385C10.2533 42.6214 11.9816 43.7442 13.8209 44.8118L15.3269 42.2171C13.5712 41.1981 11.9353 40.1343 10.4265 39.023L8.64736 41.4385ZM19.2608 47.6646C21.0554 48.5178 22.9304 49.3327 24.8787 50.1122L25.9931 47.3269C24.0976 46.5685 22.281 45.7787 20.5489 44.9552L19.2608 47.6646ZM30.6253 52.241C32.4935 52.8827 34.4168 53.4986 36.3901 54.0906L37.2521 51.2171C35.3133 50.6355 33.4277 50.0316 31.5999 49.4037L30.6253 52.241ZM42.2126 55.7326C44.1385 56.2436 46.1046 56.7357 48.107 57.2104L48.799 54.2913C46.8204 53.8222 44.8802 53.3366 42.982 52.833L42.2126 55.7326ZM54.0315 58.5437C55.9698 58.9581 57.937 59.3587 59.9301 59.7467L60.5033 56.8019C58.5269 56.4172 56.5777 56.0203 54.6588 55.61L54.0315 58.5437ZM65.8852 60.8564C67.8513 61.2075 69.8387 61.548 71.8447 61.8791L72.3333 58.9192C70.3392 58.59 68.3647 58.2517 66.4125 57.9031L65.8852 60.8564ZM77.7934 62.8267C79.7746 63.1315 81.771 63.4285 83.7799 63.7187L84.2088 60.7495C82.2082 60.4605 80.2209 60.1648 78.2495 59.8616L77.7934 62.8267ZM89.7421 64.5563C91.7265 64.8277 93.7206 65.0935 95.722 65.3548L96.1104 62.3801C94.1143 62.1195 92.1263 61.8544 90.1487 61.5839L89.7421 64.5563ZM101.706 66.121C103.694 66.3709 105.687 66.6173 107.683 66.861L108.047 63.8832C106.054 63.6398 104.064 63.3938 102.08 63.1444L101.706 66.121ZM113.668 67.5843C115.661 67.823 117.655 68.0601 119.647 68.2963L120.001 65.3172C118.009 65.081 116.016 64.8441 114.024 64.6056L113.668 67.5843ZM125.629 69.0049C127.625 69.2414 129.616 69.4781 131.602 69.7157L131.958 66.7369C129.971 66.4991 127.979 66.2623 125.983 66.0257L125.629 69.0049ZM137.585 70.4384C139.581 70.6821 141.567 70.9276 143.543 71.1761L143.917 68.1995C141.938 67.9505 139.947 67.7045 137.949 67.4605L137.585 70.4384ZM149.52 71.9424C151.522 72.2045 153.51 72.4706 155.481 72.7418L155.889 69.7698C153.911 69.4976 151.917 69.2306 149.909 68.9678L149.52 71.9424ZM161.409 73.5816C163.419 73.8752 165.409 74.1754 167.374 74.4833L167.839 71.5195C165.862 71.2098 163.862 70.908 161.842 70.613L161.409 73.5816ZM173.29 75.4472C175.283 75.7854 177.246 76.1331 179.177 76.4916L179.725 73.542C177.777 73.1804 175.799 72.83 173.792 72.4895L173.29 75.4472ZM185.09 77.6462C187.082 78.0557 189.032 78.4791 190.936 78.9178L191.61 75.9944C189.68 75.5499 187.707 75.1215 185.694 74.7077L185.09 77.6462ZM196.704 80.3322C198.686 80.8501 200.607 81.3882 202.463 81.9485L203.33 79.0765C201.434 78.5043 199.477 77.9562 197.463 77.4297L196.704 80.3322ZM208.138 83.8066C210.073 84.4954 211.917 85.2144 213.662 85.9662L214.849 83.2111C213.038 82.4306 211.133 81.6882 209.144 80.9802L208.138 83.8066ZM218.963 88.5208C220.766 89.4977 222.415 90.5214 223.902 91.5953L225.659 89.1634C224.053 88.0036 222.292 86.9124 220.392 85.8831L218.963 88.5208ZM228.214 95.3332C229.558 96.7621 230.649 98.2637 231.478 99.8447L234.135 98.4514C233.165 96.602 231.908 94.8811 230.399 93.2776L228.214 95.3332ZM233.21 105.053C233.353 105.955 233.427 106.888 233.427 107.854H236.427C236.427 106.736 236.342 105.646 236.174 104.583L233.21 105.053ZM233.427 107.854C233.427 108.875 233.387 109.873 233.31 110.848L236.301 111.085C236.384 110.029 236.427 108.952 236.427 107.854H233.427ZM232.344 116.684C231.84 118.635 231.169 120.482 230.348 122.226L233.062 123.504C233.963 121.591 234.698 119.567 235.249 117.433L232.344 116.684ZM227.342 127.301C226.186 128.892 224.885 130.38 223.456 131.762L225.542 133.918C227.09 132.421 228.507 130.803 229.77 129.063L227.342 127.301ZM218.863 135.554C217.259 136.689 215.551 137.726 213.758 138.667L215.151 141.324C217.055 140.325 218.876 139.22 220.595 138.004L218.863 135.554ZM208.274 141.144C206.421 141.86 204.505 142.487 202.541 143.026L203.335 145.919C205.391 145.355 207.403 144.696 209.355 143.943L208.274 141.144ZM196.637 144.358C194.66 144.712 192.653 144.983 190.631 145.173L190.91 148.16C193.014 147.963 195.104 147.68 197.167 147.311L196.637 144.358ZM184.571 145.494C182.546 145.52 180.519 145.465 178.505 145.331L178.305 148.324C180.399 148.464 182.505 148.521 184.61 148.493L184.571 145.494ZM172.474 144.683C170.457 144.382 168.47 143.999 166.526 143.534L165.829 146.452C167.86 146.937 169.932 147.337 172.031 147.65L172.474 144.683ZM160.716 141.857C158.784 141.197 156.917 140.449 155.131 139.615L153.861 142.333C155.75 143.215 157.717 144.003 159.746 144.696L160.716 141.857ZM149.859 136.745C148.142 135.66 146.54 134.479 145.071 133.205L143.105 135.471C144.696 136.852 146.421 138.122 148.256 139.281L149.859 136.745ZM140.967 128.96C140.35 128.19 139.776 127.395 139.246 126.576L136.727 128.205C137.313 129.112 137.948 129.989 138.626 130.835L140.967 128.96ZM139.246 126.576C138.71 125.747 138.227 124.912 137.796 124.071L135.126 125.44C135.604 126.372 136.137 127.294 136.727 128.205L139.246 126.576ZM135.792 118.864C135.315 117.051 135.05 115.21 134.987 113.342L131.988 113.443C132.059 115.53 132.356 117.594 132.891 119.628L135.792 118.864ZM135.382 107.722C135.692 105.902 136.176 104.057 136.828 102.191L133.996 101.201C133.293 103.212 132.765 105.22 132.424 107.218L135.382 107.722ZM139.082 96.9294C139.916 95.277 140.872 93.6131 141.946 91.9406L139.421 90.32C138.297 92.0718 137.288 93.8252 136.404 95.5773L139.082 96.9294ZM145.303 87.1748C146.468 85.6532 147.724 84.1284 149.067 82.6026L146.815 80.6205C145.43 82.1938 144.131 83.7713 142.921 85.3508L145.303 87.1748ZM153.012 78.3691C154.358 76.9999 155.77 75.6322 157.246 74.2677L155.209 72.0652C153.7 73.4602 152.254 74.8609 150.872 76.2659L153.012 78.3691ZM161.665 70.3497C163.126 69.1052 164.638 67.8649 166.198 66.6302L164.336 64.2781C162.749 65.534 161.21 66.7968 159.72 68.0654L161.665 70.3497ZM170.933 63.0062C172.477 61.8628 174.061 60.7254 175.682 59.595L173.966 57.1342C172.322 58.2803 170.716 59.4343 169.148 60.5953L170.933 63.0062ZM180.629 56.2427C182.24 55.1817 183.883 54.1281 185.555 53.0826L183.965 50.5387C182.273 51.5964 180.61 52.6629 178.979 53.7374L180.629 56.2427ZM190.657 49.975C192.323 48.9854 194.015 48.0044 195.731 47.0326L194.253 44.4219C192.519 45.4038 190.809 46.3952 189.125 47.3956L190.657 49.975ZM200.953 44.1456C202.666 43.2209 204.4 42.3056 206.154 41.4005L204.778 38.7345C203.007 39.6481 201.257 40.5721 199.528 41.5059L200.953 44.1456ZM211.467 38.7203C213.221 37.8548 214.994 36.9998 216.783 36.1559L215.503 33.4426C213.698 34.2939 211.91 35.1565 210.14 36.0297L211.467 38.7203ZM222.173 33.6691C223.965 32.8608 225.771 32.0638 227.59 31.2788L226.402 28.5243C224.567 29.3157 222.746 30.1194 220.939 30.9345L222.173 33.6691ZM233.05 28.9761C234.873 28.2243 236.708 27.4848 238.553 26.7584L237.454 23.9669C235.594 24.6993 233.744 25.4447 231.906 26.2026L233.05 28.9761ZM244.078 24.6336C245.927 23.9391 247.786 23.2579 249.652 22.5906L248.642 19.7658C246.761 20.4384 244.888 21.125 243.023 21.8251L244.078 24.6336ZM255.242 20.6413C257.112 20.0057 258.988 19.3845 260.87 18.7782L259.95 15.9227C258.053 16.5339 256.162 17.1602 254.276 17.8009L255.242 20.6413ZM266.527 17.0052C268.417 16.4296 270.31 15.8695 272.206 15.3255L271.379 12.4418C269.467 12.9904 267.558 13.5551 265.653 14.1354L266.527 17.0052ZM277.92 13.7375C279.83 13.2236 281.741 12.7266 283.653 12.247L282.923 9.33719C280.995 9.82095 279.067 10.3222 277.14 10.8404L277.92 13.7375ZM289.408 10.8564C291.34 10.4075 293.27 9.97713 295.198 9.56573L294.572 6.63179C292.626 7.04702 290.678 7.48136 288.729 7.93421L289.408 10.8564ZM300.982 8.38738C302.935 8.00854 304.885 7.64997 306.829 7.3123L306.315 4.35656C304.352 4.69765 302.383 5.05976 300.411 5.44226L300.982 8.38738ZM312.644 6.36258C314.614 6.06148 316.577 5.78277 318.532 5.5271L318.143 2.55243C316.166 2.81096 314.182 3.09272 312.19 3.39701L312.644 6.36258ZM324.384 4.82849C326.364 4.61491 328.335 4.42613 330.294 4.26285L330.045 1.27322C328.061 1.43857 326.066 1.62967 324.062 1.84578L324.384 4.82849ZM336.173 3.84789C338.161 3.7335 340.135 3.64681 342.093 3.58858L342.003 0.589906C340.017 0.648987 338.015 0.736907 336 0.852848L336.173 3.84789ZM347.982 3.49999C349.974 3.50008 351.946 3.53145 353.898 3.59493L353.996 0.596519C352.01 0.531946 350.005 0.500077 347.982 0.499992L347.982 3.49999ZM359.77 3.88789C361.758 4.0228 363.722 4.19348 365.66 4.40083L365.979 1.41787C364.002 1.20622 361.999 1.03221 359.973 0.894766L359.77 3.88789ZM371.466 5.14525C373.44 5.4419 375.383 5.77994 377.291 6.16037L377.878 3.21827C375.921 2.82814 373.931 2.48199 371.912 2.17854L371.466 5.14525ZM382.96 7.44232C384.897 7.93506 386.794 8.47605 388.647 9.06644L389.558 6.20802C387.646 5.5988 385.692 5.04158 383.699 4.53484L382.96 7.44232ZM394.137 11.0124C395.975 11.734 397.762 12.5105 399.496 13.3432L400.795 10.639C398.992 9.77302 397.137 8.96723 395.233 8.21988L394.137 11.0124ZM404.644 16.0768C406.325 17.0614 407.945 18.1078 409.501 19.2175L411.243 16.7752C409.611 15.6115 407.916 14.5164 406.16 13.4882L404.644 16.0768ZM414.065 22.8195C414.791 23.4535 415.5 24.1044 416.19 24.7726L418.276 22.6166C417.548 21.9124 416.802 21.2269 416.038 20.5597L414.065 22.8195Z" fill="#D9D9D9"/>
</svg>
