<svg width="45" height="45" viewBox="0 0 45 45" fill="none" xmlns="http://www.w3.org/2000/svg">
<rect width="45" height="45" rx="4.8" fill="#25136D"/>
<path d="M18.0875 22.6875L21.1541 25.7541L27.2875 19.6208M16.3011 11.4895C17.401 11.4017 18.4452 10.9693 19.285 10.2537C20.234 9.44448 21.4403 9 22.6875 9C23.9346 9 25.1409 9.44448 26.0899 10.2537C26.9298 10.9693 27.9739 11.4017 29.0738 11.4895C30.317 11.5884 31.4842 12.1271 32.366 13.0089C33.2478 13.8908 33.7865 15.058 33.8854 16.3011C33.9732 17.401 34.4057 18.4452 35.1213 19.285C35.9305 20.234 36.3749 21.4403 36.3749 22.6875C36.3749 23.9346 35.9305 25.1409 35.1213 26.0899C34.4057 26.9298 33.9732 27.9739 33.8854 29.0738C33.7865 30.317 33.2478 31.4842 32.366 32.366C31.4842 33.2478 30.317 33.7865 29.0738 33.8854C27.9739 33.9732 26.9298 34.4057 26.0899 35.1213C25.1409 35.9305 23.9346 36.3749 22.6875 36.3749C21.4403 36.3749 20.234 35.9305 19.285 35.1213C18.4452 34.4057 17.401 33.9732 16.3011 33.8854C15.058 33.7865 13.8908 33.2478 13.0089 32.366C12.1271 31.4842 11.5884 30.317 11.4895 29.0738C11.4017 27.9739 10.9693 26.9298 10.2537 26.0899C9.44448 25.1409 9 23.9346 9 22.6875C9 21.4403 9.44448 20.234 10.2537 19.285C10.9693 18.4452 11.4017 17.401 11.4895 16.3011C11.5884 15.058 12.1271 13.8908 13.0089 13.0089C13.8908 12.1271 15.058 11.5884 16.3011 11.4895V11.4895Z" stroke="white" stroke-width="3.06667" stroke-linecap="round" stroke-linejoin="round"/>
</svg>
