<svg width="202" height="54" viewBox="0 0 202 54" fill="none" xmlns="http://www.w3.org/2000/svg">
<path d="M18.4331 8.42374C18.6766 8.53284 18.9073 8.68607 19.1095 8.89405C19.9814 9.79141 20.0061 11.2621 19.164 12.1921L0.392872 32.9362V38.7507L16.0157 21.4861C16.4365 21.0211 16.9919 20.7816 17.5509 20.771C18.11 20.7598 18.6728 20.9785 19.1089 21.4272C19.9808 22.3246 20.0055 23.7954 19.1634 24.7253L0.392265 45.4693V51.2343H0.43681L16.0148 34.0192C16.4356 33.5543 16.991 33.3148 17.55 33.3041C18.1091 33.293 18.6719 33.5117 19.108 33.9604C19.9799 34.8577 20.0046 36.3285 19.1625 37.2585L4.67481 53.2688H10.8317H20.3416H27.3318C34.9486 53.2688 39.6555 47.9484 39.6555 40.5691C39.6555 34.2408 36.0096 30.1018 31.508 29.8828V29.4451C35.5647 28.4159 38.2858 24.5839 38.2858 19.6352C38.2858 12.8033 34.0408 8.42374 26.0303 8.42374H20.3416H18.4331Z" fill="#007896"/>
<path d="M0.392265 8.42374V18.2336V26.2175L16.0151 8.95292C16.0151 8.95292 16.4723 8.5431 16.7352 8.42374H15.9667H10.8329H0.392265Z" fill="#F5C400"/>
<path d="M70.6799 22.3681C70.6799 25.4033 70.0898 27.9638 68.9094 30.0494C67.729 32.1261 66.136 33.7014 64.1302 34.7753C62.1245 35.8403 59.888 36.3727 57.4208 36.3727C54.9358 36.3727 52.6905 35.8358 50.6847 34.7619C48.6879 33.6792 47.0993 32.0995 45.9189 30.0227C44.7474 27.9371 44.1617 25.3856 44.1617 22.3681C44.1617 19.3329 44.7474 16.7769 45.9189 14.7002C47.0993 12.6146 48.6879 11.0393 50.6847 9.9743C52.6905 8.90044 54.9358 8.3635 57.4208 8.3635C59.888 8.3635 62.1245 8.90044 64.1302 9.9743C66.136 11.0393 67.729 12.6146 68.9094 14.7002C70.0898 16.7769 70.6799 19.3329 70.6799 22.3681ZM63.0653 22.3681C63.0653 20.7351 62.8478 19.3595 62.4129 18.2413C61.987 17.1142 61.3524 16.2622 60.5093 15.6853C59.675 15.0996 58.6455 14.8067 57.4208 14.8067C56.1961 14.8067 55.1621 15.0996 54.319 15.6853C53.4848 16.2622 52.8502 17.1142 52.4154 18.2413C51.9894 19.3595 51.7764 20.7351 51.7764 22.3681C51.7764 24.0011 51.9894 25.3812 52.4154 26.5083C52.8502 27.6265 53.4848 28.4785 54.319 29.0643C55.1621 29.6411 56.1961 29.9296 57.4208 29.9296C58.6455 29.9296 59.675 29.6411 60.5093 29.0643C61.3524 28.4785 61.987 27.6265 62.4129 26.5083C62.8478 25.3812 63.0653 24.0011 63.0653 22.3681ZM100.516 22.3681C100.516 25.4033 99.9261 27.9638 98.7458 30.0494C97.5654 32.1261 95.9723 33.7014 93.9666 34.7753C91.9609 35.8403 89.7244 36.3727 87.2572 36.3727C84.7722 36.3727 82.5268 35.8358 80.5211 34.7619C78.5243 33.6792 76.9356 32.0995 75.7553 30.0227C74.5838 27.9371 73.998 25.3856 73.998 22.3681C73.998 19.3329 74.5838 16.7769 75.7553 14.7002C76.9356 12.6146 78.5243 11.0393 80.5211 9.9743C82.5268 8.90044 84.7722 8.3635 87.2572 8.3635C89.7244 8.3635 91.9609 8.90044 93.9666 9.9743C95.9723 11.0393 97.5654 12.6146 98.7458 14.7002C99.9261 16.7769 100.516 19.3329 100.516 22.3681ZM92.9016 22.3681C92.9016 20.7351 92.6842 19.3595 92.2493 18.2413C91.8233 17.1142 91.1888 16.2622 90.3456 15.6853C89.5114 15.0996 88.4819 14.8067 87.2572 14.8067C86.0324 14.8067 84.9985 15.0996 84.1554 15.6853C83.3211 16.2622 82.6866 17.1142 82.2517 18.2413C81.8257 19.3595 81.6127 20.7351 81.6127 22.3681C81.6127 24.0011 81.8257 25.3812 82.2517 26.5083C82.6866 27.6265 83.3211 28.4785 84.1554 29.0643C84.9985 29.6411 86.0324 29.9296 87.2572 29.9296C88.4819 29.9296 89.5114 29.6411 90.3456 29.0643C91.1888 28.4785 91.8233 27.6265 92.2493 26.5083C92.6842 25.3812 92.9016 24.0011 92.9016 22.3681ZM118.638 17.2562C118.567 16.3687 118.234 15.6764 117.639 15.1794C117.054 14.6824 116.162 14.4339 114.964 14.4339C114.2 14.4339 113.575 14.5271 113.087 14.7135C112.607 14.891 112.252 15.1351 112.022 15.4457C111.791 15.7563 111.671 16.1113 111.662 16.5107C111.644 16.8391 111.702 17.1364 111.835 17.4026C111.977 17.66 112.199 17.8952 112.501 18.1082C112.803 18.3123 113.189 18.4987 113.659 18.6673C114.129 18.8359 114.688 18.9868 115.336 19.1199L117.573 19.5992C119.082 19.9186 120.373 20.3402 121.447 20.8638C122.521 21.3874 123.399 22.0043 124.083 22.7142C124.766 23.4154 125.267 24.2052 125.587 25.0839C125.915 25.9625 126.084 26.921 126.093 27.9593C126.084 29.7521 125.636 31.2697 124.748 32.5122C123.861 33.7546 122.592 34.6998 120.941 35.3477C119.299 35.9956 117.324 36.3195 115.017 36.3195C112.647 36.3195 110.579 35.9689 108.813 35.2678C107.056 34.5667 105.689 33.4884 104.713 32.0329C103.746 30.5685 103.258 28.6959 103.249 26.4151H110.278C110.322 27.2493 110.531 27.9504 110.903 28.5184C111.276 29.0864 111.8 29.5169 112.474 29.8097C113.158 30.1026 113.97 30.2491 114.91 30.2491C115.7 30.2491 116.361 30.1514 116.894 29.9562C117.426 29.7609 117.83 29.4902 118.105 29.1441C118.38 28.798 118.522 28.4031 118.531 27.9593C118.522 27.5422 118.385 27.1783 118.119 26.8677C117.861 26.5482 117.435 26.2642 116.841 26.0157C116.246 25.7583 115.443 25.5187 114.431 25.2968L111.715 24.7111C109.301 24.1875 107.398 23.3133 106.004 22.0886C104.62 20.855 103.932 19.1732 103.941 17.0432C103.932 15.3126 104.394 13.7994 105.325 12.5037C106.266 11.199 107.566 10.1829 109.226 9.45512C110.894 8.72737 112.807 8.3635 114.964 8.3635C117.165 8.3635 119.068 8.73181 120.675 9.46843C122.281 10.205 123.519 11.2434 124.389 12.5835C125.267 13.9148 125.711 15.4723 125.72 17.2562H118.638ZM128.163 14.7002V8.73625H151.859V14.7002H143.658V36H136.363V14.7002H128.163ZM154.644 36V8.73625H174.293V14.7002H162.046V19.3862H173.282V25.3501H162.046V30.0361H174.24V36H154.644ZM177.964 36V8.73625H189.733C191.756 8.73625 193.527 9.10456 195.044 9.84118C196.562 10.5778 197.742 11.6383 198.585 13.0228C199.428 14.4073 199.85 16.0669 199.85 18.0017C199.85 19.9541 199.415 21.6004 198.545 22.9406C197.684 24.2807 196.473 25.2924 194.911 25.9758C193.358 26.6591 191.543 27.0008 189.466 27.0008H182.437V21.2499H187.975C188.845 21.2499 189.586 21.1434 190.198 20.9304C190.82 20.7085 191.295 20.358 191.623 19.8787C191.96 19.3995 192.129 18.7738 192.129 18.0017C192.129 17.2207 191.96 16.5861 191.623 16.098C191.295 15.601 190.82 15.2371 190.198 15.0064C189.586 14.7668 188.845 14.6469 187.975 14.6469H185.366V36H177.964ZM193.939 23.4864L200.755 36H192.715L186.058 23.4864H193.939Z" fill="#007896"/>
<path d="M82.6511 51.3748V41.8325H89.081V43.4959H84.6686V45.7696H88.7501V47.433H84.6686V49.7114H89.0996V51.3748H82.6511ZM98.6664 41.8325V51.3748H96.9238L92.7723 45.3689H92.7024V51.3748H90.6849V41.8325H92.4555L96.5743 47.8337H96.6582V41.8325H98.6664ZM99.9698 43.4959V41.8325H107.807V43.4959H104.885V51.3748H102.891V43.4959H99.9698ZM109.097 51.3748V41.8325H115.527V43.4959H111.115V45.7696H115.197V47.433H111.115V49.7114H115.546V51.3748H109.097ZM117.131 51.3748V41.8325H120.896C121.617 41.8325 122.232 41.9614 122.741 42.2192C123.254 42.4739 123.643 42.8358 123.911 43.3048C124.181 43.7708 124.316 44.319 124.316 44.9496C124.316 45.5832 124.179 46.1284 123.906 46.585C123.633 47.0385 123.237 47.3864 122.718 47.6287C122.202 47.871 121.578 47.9921 120.845 47.9921H118.324V46.3707H120.519C120.904 46.3707 121.224 46.3179 121.478 46.2122C121.733 46.1066 121.923 45.9482 122.047 45.737C122.174 45.5258 122.238 45.2633 122.238 44.9496C122.238 44.6327 122.174 44.3656 122.047 44.1482C121.923 43.9307 121.732 43.7661 121.474 43.6543C121.219 43.5393 120.898 43.4819 120.509 43.4819H119.149V51.3748H117.131ZM122.285 47.0323L124.656 51.3748H122.429L120.109 47.0323H122.285ZM125.742 51.3748V41.8325H129.506C130.23 41.8325 130.847 41.9707 131.356 42.2472C131.866 42.5205 132.254 42.901 132.521 43.3887C132.791 43.8733 132.926 44.4324 132.926 45.066C132.926 45.6997 132.79 46.2588 132.516 46.7434C132.243 47.228 131.847 47.6054 131.328 47.8756C130.813 48.1459 130.188 48.281 129.455 48.281H127.056V46.6642H129.129C129.517 46.6642 129.837 46.5974 130.089 46.4638C130.344 46.3272 130.533 46.1392 130.657 45.9001C130.785 45.6578 130.848 45.3798 130.848 45.066C130.848 44.7492 130.785 44.4728 130.657 44.2367C130.533 43.9975 130.344 43.8127 130.089 43.6822C129.834 43.5487 129.511 43.4819 129.12 43.4819H127.759V51.3748H125.742ZM134.237 51.3748V41.8325H138.002C138.722 41.8325 139.337 41.9614 139.847 42.2192C140.359 42.4739 140.749 42.8358 141.016 43.3048C141.286 43.7708 141.422 44.319 141.422 44.9496C141.422 45.5832 141.285 46.1284 141.012 46.585C140.738 47.0385 140.342 47.3864 139.823 47.6287C139.308 47.871 138.683 47.9921 137.95 47.9921H135.43V46.3707H137.624C138.009 46.3707 138.329 46.3179 138.584 46.2122C138.839 46.1066 139.028 45.9482 139.152 45.737C139.28 45.5258 139.344 45.2633 139.344 44.9496C139.344 44.6327 139.28 44.3656 139.152 44.1482C139.028 43.9307 138.837 43.7661 138.579 43.6543C138.325 43.5393 138.003 43.4819 137.615 43.4819H136.254V51.3748H134.237ZM139.39 47.0323L141.762 51.3748H139.535L137.214 47.0323H139.39ZM144.865 41.8325V51.3748H142.847V41.8325H144.865ZM151.701 44.5768C151.664 44.201 151.504 43.909 151.221 43.7009C150.939 43.4927 150.555 43.3887 150.07 43.3887C149.741 43.3887 149.463 43.4353 149.236 43.5285C149.01 43.6186 148.836 43.7444 148.715 43.9059C148.597 44.0674 148.538 44.2507 148.538 44.4557C148.531 44.6265 148.567 44.7756 148.645 44.903C148.725 45.0303 148.836 45.1406 148.976 45.2338C149.115 45.3239 149.277 45.4031 149.46 45.4714C149.643 45.5366 149.839 45.5926 150.047 45.6391L150.904 45.8442C151.321 45.9373 151.703 46.0616 152.051 46.2169C152.399 46.3722 152.7 46.5632 152.955 46.79C153.209 47.0168 153.407 47.2839 153.546 47.5914C153.689 47.8989 153.762 48.2515 153.765 48.6491C153.762 49.233 153.613 49.7394 153.318 50.168C153.026 50.5936 152.604 50.9244 152.051 51.1605C151.501 51.3934 150.838 51.5099 150.061 51.5099C149.291 51.5099 148.62 51.3919 148.048 51.1558C147.48 50.9197 147.036 50.5703 146.716 50.1074C146.399 49.6415 146.233 49.0653 146.217 48.3788H148.169C148.191 48.6988 148.283 48.9659 148.444 49.1802C148.609 49.3915 148.828 49.5514 149.101 49.6602C149.378 49.7658 149.69 49.8186 150.038 49.8186C150.38 49.8186 150.676 49.7689 150.928 49.6695C151.182 49.5701 151.38 49.4318 151.52 49.2548C151.659 49.0777 151.729 48.8743 151.729 48.6444C151.729 48.4301 151.665 48.2499 151.538 48.1039C151.414 47.9579 151.231 47.8337 150.988 47.7312C150.749 47.6287 150.456 47.5355 150.108 47.4516L149.069 47.1907C148.264 46.995 147.629 46.6891 147.163 46.2728C146.697 45.8566 146.466 45.2959 146.469 44.5908C146.466 44.013 146.619 43.5083 146.93 43.0765C147.244 42.6448 147.674 42.3077 148.221 42.0654C148.767 41.8232 149.389 41.702 150.084 41.702C150.793 41.702 151.411 41.8232 151.939 42.0654C152.47 42.3077 152.883 42.6448 153.178 43.0765C153.473 43.5083 153.626 44.0084 153.635 44.5768H151.701ZM155.122 51.3748V41.8325H161.552V43.4959H157.14V45.7696H161.221V47.433H157.14V49.7114H161.571V51.3748H155.122Z" fill="black"/>
<rect x="42.5109" y="43.9906" width="31.823" height="3.74388" rx="1.40579" fill="#F5C400"/>
<rect x="168.867" y="43.9906" width="31.823" height="3.74388" rx="1.40579" fill="#F5C400"/>
</svg>
