<svg width="101" height="52" viewBox="0 0 101 52" fill="none" xmlns="http://www.w3.org/2000/svg">
<path d="M2.79956 30.0165H5.64822V43.9072H2.79956V30.0165Z" fill="#394149"/>
<path d="M7.3004 39.1479C7.29852 38.1502 7.5943 37.1743 8.15032 36.3438C8.70635 35.5133 9.49761 34.8655 10.424 34.4824C11.3503 34.0993 12.3701 33.9981 13.3544 34.1916C14.3386 34.3851 15.243 34.8646 15.953 35.5695C16.6632 36.2743 17.147 37.1728 17.3434 38.1512C17.5399 39.1296 17.44 40.144 17.0565 41.066C16.673 41.9879 16.0231 42.776 15.189 43.3305C14.355 43.8851 13.3743 44.181 12.371 44.181C11.7038 44.1886 11.0418 44.0637 10.4238 43.8135C9.80579 43.5634 9.2442 43.1931 8.77195 42.7243C8.2997 42.2556 7.92629 41.6978 7.6736 41.0836C7.42091 40.4695 7.29403 39.8114 7.3004 39.1479ZM14.5739 39.1479C14.5628 38.7172 14.4241 38.2993 14.1753 37.9466C13.9265 37.5938 13.5787 37.3219 13.1753 37.1647C12.7719 37.0075 12.3308 36.9722 11.9074 37.063C11.4838 37.1538 11.0967 37.3668 10.7942 37.6753C10.4919 37.9838 10.2876 38.3742 10.2071 38.7976C10.1266 39.2209 10.1735 39.6585 10.3417 40.0555C10.5101 40.4525 10.7923 40.7914 11.1532 41.0297C11.5142 41.268 11.9377 41.3952 12.371 41.3953C12.6674 41.4036 12.9623 41.3507 13.2371 41.2399C13.5119 41.1291 13.7607 40.9629 13.9678 40.7517C14.1747 40.5405 14.3355 40.289 14.4398 40.013C14.5442 39.7369 14.5898 39.4424 14.5739 39.1479Z" fill="#394149"/>
<path d="M28.8932 34.3886V43.435C28.8932 46.6362 26.3769 47.9866 23.8321 47.9866C22.9373 48.0528 22.0413 47.8728 21.2424 47.4664C20.4435 47.06 19.7725 46.4428 19.3028 45.6825L21.7526 44.2755C21.947 44.6651 22.2546 44.9878 22.6355 45.2016C23.0164 45.4154 23.4531 45.5106 23.8891 45.4747C24.1759 45.5223 24.4699 45.5037 24.7485 45.4203C25.027 45.337 25.2825 45.1912 25.4954 44.9941C25.7082 44.797 25.8727 44.5539 25.9761 44.2836C26.0796 44.0133 26.1192 43.723 26.092 43.435V42.5568C25.7571 42.9666 25.3298 43.2921 24.8448 43.507C24.3598 43.7219 23.8307 43.8202 23.3004 43.7939C22.0109 43.7939 20.7744 43.2845 19.8626 42.3778C18.9508 41.4711 18.4386 40.2413 18.4386 38.959C18.4386 37.6767 18.9508 36.447 19.8626 35.5403C20.7744 34.6336 22.0109 34.1242 23.3004 34.1242C23.8304 34.1001 24.3587 34.1994 24.8434 34.4141C25.3281 34.6289 25.7556 34.9532 26.092 35.3612V34.4169L28.8932 34.3886ZM26.092 38.959C26.111 38.4998 25.9913 38.0454 25.7486 37.6542C25.5057 37.2631 25.1509 36.9531 24.7296 36.7642C24.3082 36.5752 23.8396 36.5159 23.3841 36.5939C22.9286 36.6718 22.507 36.8835 22.1734 37.2016C21.8398 37.5198 21.6095 37.9299 21.5122 38.3792C21.4147 38.8285 21.4548 39.2966 21.627 39.7231C21.7993 40.1497 22.0958 40.5152 22.4786 40.7728C22.8614 41.0305 23.3129 41.1683 23.7751 41.1687C24.0768 41.1899 24.3796 41.1481 24.664 41.0458C24.9485 40.9435 25.2082 40.7832 25.4265 40.575C25.6447 40.3668 25.8168 40.1154 25.9314 39.8371C26.046 39.5588 26.1007 39.2597 26.092 38.959Z" fill="#394149"/>
<path d="M30.5359 39.1479C30.534 38.1502 30.8299 37.1743 31.3858 36.3438C31.9419 35.5133 32.7332 34.8655 33.6595 34.4824C34.5858 34.0993 35.6056 33.9981 36.5899 34.1916C37.5741 34.3851 38.4785 34.8646 39.1886 35.5695C39.8987 36.2743 40.3825 37.1728 40.579 38.1512C40.7754 39.1296 40.6756 40.144 40.292 41.066C39.9085 41.9879 39.2586 42.776 38.4246 43.3305C37.5905 43.8851 36.6098 44.181 35.6066 44.181C34.9394 44.1886 34.2773 44.0637 33.6593 43.8135C33.0413 43.5634 32.4797 43.1931 32.0075 42.7243C31.5353 42.2556 31.1618 41.6978 30.9091 41.0836C30.6564 40.4695 30.5295 39.8114 30.5359 39.1479ZM37.8095 39.1479C37.7983 38.7172 37.6596 38.2993 37.4108 37.9466C37.162 37.5938 36.8142 37.3219 36.4108 37.1647C36.0075 37.0075 35.5664 36.9722 35.1429 37.063C34.7194 37.1538 34.3322 37.3668 34.0297 37.6753C33.7274 37.9838 33.5231 38.3742 33.4426 38.7976C33.3622 39.2209 33.409 39.6585 33.5772 40.0555C33.7456 40.4525 34.0278 40.7914 34.3887 41.0297C34.7497 41.268 35.1733 41.3952 35.6066 41.3953C35.9014 41.4009 36.1942 41.3461 36.4668 41.2341C36.7393 41.1221 36.9858 40.9555 37.1907 40.7446C37.3956 40.5338 37.5546 40.2831 37.6579 40.0084C37.7611 39.7337 37.8062 39.4407 37.7905 39.1479H37.8095Z" fill="#394149"/>
<path d="M41.997 31.839C41.997 31.4991 42.0984 31.1668 42.2882 30.8842C42.4782 30.6016 42.7481 30.3813 43.0638 30.2512C43.3796 30.1211 43.7271 30.0871 44.0623 30.1534C44.3976 30.2197 44.7055 30.3834 44.9472 30.6237C45.1889 30.8641 45.3535 31.1703 45.4201 31.5037C45.4869 31.8371 45.4526 32.1827 45.3219 32.4967C45.1911 32.8107 44.9695 33.0792 44.6854 33.268C44.4011 33.4568 44.067 33.5576 43.7252 33.5576C43.2676 33.5552 42.8295 33.3733 42.5059 33.0515C42.1823 32.7298 41.9995 32.2941 41.997 31.839ZM42.2913 34.3886H45.14V43.9072H42.2913V34.3886Z" fill="#394149"/>
<path d="M57.56 39.1479C57.5945 39.7771 57.5036 40.4069 57.2924 41.001C57.0812 41.5951 56.754 42.1418 56.3294 42.6096C55.9049 43.0774 55.3915 43.4571 54.8189 43.7268C54.2462 43.9965 53.6256 44.1509 52.9927 44.1811C52.4613 44.2064 51.9308 44.1156 51.4387 43.9149C50.9465 43.7142 50.5045 43.4086 50.144 43.0196V47.7411H47.2954V34.3886H50.144V35.2857C50.5045 34.8967 50.9465 34.5911 51.4387 34.3904C51.9308 34.1897 52.4613 34.0989 52.9927 34.1242C53.6248 34.1544 54.2446 34.3085 54.8166 34.5776C55.3886 34.8468 55.9016 35.2256 56.3259 35.6924C56.7503 36.1592 57.0778 36.7047 57.2895 37.2977C57.5014 37.8907 57.5933 38.5195 57.56 39.1479ZM54.7114 39.1479C54.7001 38.7047 54.5583 38.2745 54.3036 37.9106C54.0489 37.5468 53.6926 37.2651 53.2786 37.1007C52.8646 36.9362 52.4111 36.8961 51.9745 36.9854C51.5377 37.0746 51.1369 37.2893 50.8217 37.6028C50.5064 37.9163 50.2907 38.3148 50.2009 38.7491C50.1112 39.1834 50.1515 39.6343 50.3168 40.046C50.4822 40.4577 50.7654 40.8122 51.1313 41.0654C51.4972 41.3187 51.9298 41.4597 52.3755 41.4709C52.6865 41.4906 52.9981 41.4438 53.2895 41.3338C53.5808 41.2237 53.8451 41.0529 54.0646 40.8329C54.284 40.6128 54.4537 40.3486 54.562 40.058C54.6702 39.7674 54.7147 39.4571 54.6924 39.1479H54.7114Z" fill="#394149"/>
<path d="M66.4289 41.0554C66.4289 43.2462 64.5298 44.181 62.4408 44.181C61.6063 44.2545 60.7688 44.0779 60.036 43.674C59.3034 43.2701 58.7089 42.6574 58.3293 41.9147L60.8171 40.5077C60.9181 40.8512 61.1343 41.15 61.4296 41.3544C61.725 41.5588 62.0818 41.6566 62.4408 41.6314C63.134 41.6314 63.4758 41.4142 63.4758 41.0365C63.4758 39.9883 58.7281 40.5455 58.7281 37.2593C58.7281 35.1818 60.4942 34.1336 62.5263 34.1336C63.2761 34.111 64.0184 34.2881 64.6763 34.6468C65.3341 35.0054 65.8834 35.5325 66.2675 36.1733L63.7702 37.4765C63.6599 37.2271 63.4791 37.0149 63.2499 36.8657C63.0206 36.7165 62.7528 36.6367 62.4788 36.636C61.9851 36.636 61.6812 36.8249 61.6812 37.1743C61.7192 38.2602 66.4289 37.5331 66.4289 41.0554Z" fill="#394149"/>
<path d="M76.9119 34.3886V43.9072H74.0632V43.0196C73.7319 43.414 73.3114 43.7248 72.836 43.9267C72.3608 44.1286 71.8441 44.2157 71.3285 44.1811C69.4294 44.1811 67.7487 42.8118 67.7487 40.2339V34.3886H70.5974V39.8184C70.5723 40.0498 70.5995 40.2838 70.6767 40.5035C70.7539 40.7232 70.8793 40.923 71.0439 41.0885C71.2084 41.254 71.408 41.3809 71.6281 41.4601C71.8481 41.5394 72.0832 41.5688 72.3161 41.5465C73.3606 41.5465 74.0918 40.9421 74.0918 39.5918V34.3886H76.9119Z" fill="#394149"/>
<path d="M93.3771 38.0713V43.9071H90.5284V38.3169C90.5284 37.3726 90.0631 36.7493 89.1516 36.7493C88.24 36.7493 87.6513 37.4198 87.6513 38.5435V43.9071H84.8026V38.3169C84.8026 37.3726 84.3468 36.7493 83.4257 36.7493C82.5048 36.7493 81.935 37.4198 81.935 38.5435V43.9071H79.0864V34.3886H81.935V35.2668C82.2327 34.8789 82.6232 34.5712 83.071 34.3717C83.5188 34.1721 84.0096 34.087 84.4988 34.1242C84.9901 34.1004 85.4793 34.2037 85.9185 34.4237C86.3578 34.6438 86.7323 34.9733 87.0056 35.3801C87.3234 34.9548 87.7444 34.6165 88.2293 34.3969C88.7142 34.1773 89.2471 34.0834 89.7782 34.1242C91.9433 34.1242 93.3771 35.6917 93.3771 38.0713Z" fill="#394149"/>
<path d="M95.808 34.332C96.9827 34.332 97.935 33.3849 97.935 32.2167C97.935 31.0485 96.9827 30.1015 95.808 30.1015C94.6333 30.1015 93.681 31.0485 93.681 32.2167C93.681 33.3849 94.6333 34.332 95.808 34.332Z" fill="#394149"/>
<path d="M35.0368 22.8115C40.538 22.8115 44.9975 18.3765 44.9975 12.9057C44.9975 7.43493 40.538 2.99997 35.0368 2.99997C29.5356 2.99997 25.0759 7.43493 25.0759 12.9057C25.0759 18.3765 29.5356 22.8115 35.0368 22.8115Z" fill="#394149"/>
<path d="M57.3037 22.8115C62.8049 22.8115 67.2645 18.3765 67.2645 12.9057C67.2645 7.43493 62.8049 2.99997 57.3037 2.99997C51.8025 2.99997 47.3429 7.43493 47.3429 12.9057C47.3429 18.3765 51.8025 22.8115 57.3037 22.8115Z" fill="#394149"/>
<path d="M22.7306 2.99997H2.81854V22.802H22.7306V2.99997Z" fill="#394149"/>
</svg>
