<svg width="155" height="38" viewBox="0 0 155 38" fill="none" xmlns="http://www.w3.org/2000/svg">
<g clip-path="url(#clip0_423_545)">
<path d="M25.5013 19.0252C26.7569 17.9796 27.5553 16.4091 27.5553 14.6531C27.5553 12.8972 26.7569 11.3267 25.5013 10.2811C25.6452 10.2118 25.7837 10.1366 25.9156 10.0551C26.7484 9.54014 27.7314 9.24274 28.7842 9.24274C31.7889 9.24274 34.2246 11.6651 34.2246 14.6531C34.2246 17.6412 31.7889 20.0635 28.7842 20.0635C27.7314 20.0635 26.7484 19.7661 25.9156 19.2512C25.7837 19.1697 25.6452 19.0945 25.5013 19.0252Z" fill="url(#paint0_linear_423_545)"/>
<path d="M23.9904 15.5049C24.552 13.9751 24.4539 12.218 23.571 10.6973C22.6881 9.1766 21.2071 8.21351 19.5941 7.9323C19.6839 7.80077 19.7659 7.66678 19.8391 7.5306C20.3015 6.67055 21.0032 5.92422 21.915 5.40072C24.5172 3.90668 27.8445 4.79331 29.3468 7.38106C30.8491 9.96882 29.9576 13.2778 27.3554 14.7718C26.4437 15.2953 25.4429 15.5265 24.4628 15.4947C24.3076 15.4896 24.1498 15.4934 23.9904 15.5049Z" fill="url(#paint1_linear_423_545)"/>
<path d="M20.9116 13.2075C20.6288 11.6034 19.6604 10.1305 18.1312 9.25252C16.6021 8.37454 14.8352 8.27694 13.2969 8.83545C13.3086 8.67691 13.3123 8.52004 13.3072 8.36572C13.2752 7.39099 13.5077 6.39571 14.0341 5.48897C15.5365 2.90122 18.8638 2.01459 21.466 3.50863C24.068 5.00267 24.9597 8.31162 23.4573 10.8994C22.9309 11.8061 22.1804 12.504 21.3155 12.9638C21.1787 13.0366 21.0439 13.1182 20.9116 13.2075Z" fill="url(#paint2_linear_423_545)"/>
<path d="M17.09 12.7488C16.0386 11.5002 14.4594 10.7062 12.6936 10.7062C10.9279 10.7062 9.34869 11.5002 8.29729 12.7488C8.22765 12.6057 8.15201 12.468 8.07003 12.3368C7.55223 11.5086 7.25317 10.5311 7.25317 9.48408C7.25317 6.49599 9.68895 4.07367 12.6936 4.07367C15.6983 4.07367 18.1341 6.49599 18.1341 9.48408C18.1341 10.5311 17.835 11.5086 17.3173 12.3368C17.2352 12.468 17.1596 12.6057 17.09 12.7488Z" fill="url(#paint3_linear_423_545)"/>
<path d="M13.5493 14.2516C12.011 13.6931 10.2442 13.7907 8.71499 14.6686C7.18584 15.5466 6.21739 17.0195 5.93463 18.6236C5.80237 18.5343 5.66763 18.4527 5.53069 18.3799C4.66586 17.9201 3.91539 17.2222 3.38898 16.3155C1.88663 13.7277 2.77818 10.4188 5.38032 8.92474C7.98246 7.43069 11.3098 8.31732 12.8122 10.9051C13.3386 11.8118 13.5711 12.8071 13.539 13.7818C13.534 13.9361 13.5377 14.093 13.5493 14.2516Z" fill="url(#paint4_linear_423_545)"/>
<path d="M11.2382 17.3136C9.62512 17.5948 8.14404 18.5579 7.26119 20.0786C6.37833 21.5993 6.28019 23.3564 6.84181 24.8862C6.68237 24.8746 6.52461 24.8709 6.36941 24.8759C5.38928 24.9078 4.38847 24.6766 3.4767 24.1531C0.874561 22.659 -0.0169961 19.3501 1.48535 16.7623C2.98769 14.1746 6.31502 13.2879 8.91716 14.782C9.82892 15.3055 10.5307 16.0518 10.993 16.9118C11.0662 17.048 11.1484 17.182 11.2382 17.3136Z" fill="url(#paint5_linear_423_545)"/>
<path d="M10.776 21.1144C9.52044 22.16 8.722 23.7305 8.722 25.4864C8.722 27.2424 9.52044 28.8129 10.776 29.8585C10.6321 29.9277 10.4936 30.003 10.3617 30.0845C9.52893 30.5994 8.54596 30.8968 7.49313 30.8968C4.48845 30.8968 2.05267 28.4745 2.05267 25.4864C2.05267 22.4983 4.48845 20.076 7.49313 20.076C8.54596 20.076 9.52893 20.3734 10.3617 20.8884C10.4936 20.9699 10.6321 21.0451 10.776 21.1144Z" fill="url(#paint6_linear_423_545)"/>
<path d="M12.2866 24.6356C11.7249 26.1654 11.8231 27.9225 12.706 29.4432C13.5888 30.964 15.0699 31.927 16.6829 32.2082C16.5931 32.3398 16.5111 32.4738 16.4379 32.61C15.9755 33.47 15.2738 34.2163 14.362 34.7398C11.7598 36.2339 8.43251 35.3472 6.93017 32.7595C5.42782 30.1717 6.31939 26.8628 8.92152 25.3687C9.83329 24.8452 10.8341 24.614 11.8142 24.6459C11.9694 24.6509 12.1272 24.6472 12.2866 24.6356Z" fill="url(#paint7_linear_423_545)"/>
<path d="M15.3656 26.934C15.6483 28.5381 16.6168 30.011 18.1459 30.8889C19.6751 31.7669 21.442 31.8645 22.9803 31.306C22.9687 31.4646 22.9649 31.6214 22.97 31.7758C23.002 32.7505 22.7696 33.7458 22.2432 34.6525C20.7408 37.2403 17.4135 38.1269 14.8113 36.6328C12.2091 35.1388 11.3176 31.8299 12.82 29.2421C13.3464 28.3354 14.0968 27.6375 14.9616 27.1777C15.0986 27.1049 15.2333 27.0232 15.3656 26.934Z" fill="url(#paint8_linear_423_545)"/>
<path d="M19.1875 27.3936C20.2389 28.6422 21.8181 29.4362 23.5839 29.4362C25.3496 29.4362 26.9289 28.6422 27.9803 27.3936C28.0499 27.5367 28.1255 27.6744 28.2075 27.8055C28.7253 28.6337 29.0244 29.6113 29.0244 30.6583C29.0244 33.6464 26.5886 36.0687 23.5839 36.0687C20.5792 36.0687 18.1434 33.6464 18.1434 30.6583C18.1434 29.6113 18.4425 28.6337 18.9602 27.8055C19.0423 27.6744 19.1179 27.5367 19.1875 27.3936Z" fill="url(#paint9_linear_423_545)"/>
<path d="M22.7283 25.8913C24.2666 26.4498 26.0335 26.3522 27.5626 25.4743C29.0918 24.5963 30.0602 23.1234 30.343 21.5193C30.4752 21.6085 30.61 21.6902 30.7469 21.763C31.6118 22.2228 32.3623 22.9207 32.8887 23.8274C34.3911 26.4152 33.4994 29.7241 30.8974 31.2182C28.2952 32.7122 24.9679 31.8256 23.4655 29.2378C22.9391 28.3311 22.7066 27.3358 22.7386 26.3611C22.7437 26.2068 22.74 26.0499 22.7283 25.8913Z" fill="url(#paint10_linear_423_545)"/>
<path d="M29.0197 20.0586C29.0186 20.0605 29.0175 20.0624 29.0164 20.0643C28.1336 21.585 26.6526 22.5481 25.0396 22.8293C25.1292 22.9609 25.2114 23.0949 25.2846 23.231C25.747 24.0911 26.4487 24.8374 27.3605 25.3609C29.9627 26.855 33.2899 25.9683 34.7923 23.3806C36.0803 21.162 35.6087 18.4134 33.8083 16.7328C33.0173 18.6205 31.1819 19.967 29.0197 20.0586Z" fill="url(#paint11_linear_423_545)"/>
<path d="M48.2786 9.84101V26H44.6775V9.84101H48.2786ZM45.2483 26L45.3142 22.8337H54.6463V26H45.2483ZM55.2099 20.519C55.2099 19.369 55.4514 18.3645 55.9345 17.5056C56.4176 16.6321 57.0982 15.9552 57.9766 15.4748C58.8548 14.9944 59.8795 14.7542 61.0507 14.7542C62.2217 14.7542 63.239 14.9944 64.1027 15.4748C64.9811 15.9552 65.6617 16.6321 66.1448 17.5056C66.6279 18.3645 66.8694 19.369 66.8694 20.519C66.8694 21.6691 66.6279 22.6736 66.1448 23.5325C65.6617 24.3914 64.9811 25.061 64.1027 25.5414C63.239 26.0218 62.2217 26.262 61.0507 26.262C59.8795 26.262 58.8548 26.0218 57.9766 25.5414C57.0982 25.061 56.4176 24.3914 55.9345 23.5325C55.4514 22.6736 55.2099 21.6691 55.2099 20.519ZM58.6133 20.4972C58.6133 21.0504 58.7158 21.5381 58.9207 21.9603C59.1256 22.3679 59.4111 22.6881 59.777 22.9211C60.143 23.1394 60.5676 23.2486 61.0507 23.2486C61.5337 23.2486 61.9582 23.1394 62.3242 22.9211C62.6901 22.6881 62.9682 22.3679 63.1586 21.9603C63.3635 21.5381 63.466 21.0504 63.466 20.4972C63.466 19.944 63.3635 19.4636 63.1586 19.056C62.9682 18.6484 62.6901 18.3354 62.3242 18.117C61.9582 17.8841 61.5337 17.7676 61.0507 17.7676C60.5676 17.7676 60.143 17.8841 59.777 18.117C59.4111 18.3354 59.1256 18.6484 58.9207 19.056C58.7158 19.4636 58.6133 19.944 58.6133 20.4972ZM67.633 20.3444C67.633 19.2234 67.8599 18.2408 68.3137 17.3964C68.7675 16.5521 69.3896 15.897 70.1801 15.4311C70.9706 14.9507 71.8782 14.7105 72.9028 14.7105C73.7665 14.7105 74.5277 14.8852 75.1865 15.2346C75.8599 15.584 76.3136 16.0426 76.5479 16.6103L76.2185 16.8287L76.482 15.0818H79.5341V25.3012C79.5341 26.5823 79.2852 27.6887 78.7875 28.6204C78.2898 29.5666 77.5799 30.2945 76.6576 30.804C75.7501 31.3135 74.6668 31.5683 73.4078 31.5683C72.3539 31.5683 71.4024 31.3572 70.5534 30.935C69.7189 30.5274 69.0383 29.9451 68.5113 29.1881C67.9989 28.4311 67.6915 27.5577 67.5891 26.5677H71.0145C71.0438 27.1937 71.2926 27.6741 71.761 28.009C72.2441 28.3438 72.8589 28.5112 73.6055 28.5112C74.4399 28.5112 75.084 28.2783 75.5378 27.8124C75.9916 27.3611 76.2185 26.757 76.2185 26V23.6853L76.5259 23.9692C76.2917 24.537 75.8379 24.9955 75.1645 25.3449C74.4911 25.6943 73.7153 25.869 72.837 25.869C71.8269 25.869 70.9266 25.6361 70.1361 25.1702C69.3604 24.7044 68.7455 24.0566 68.2917 23.2268C67.8525 22.397 67.633 21.4362 67.633 20.3444ZM71.0583 20.257C71.0583 20.7811 71.1681 21.2469 71.3878 21.6545C71.6074 22.0622 71.9001 22.3824 72.2661 22.6153C72.632 22.8337 73.0346 22.9429 73.4738 22.9429C74.0007 22.9429 74.4618 22.8337 74.8571 22.6153C75.267 22.3824 75.5817 22.0622 75.8013 21.6545C76.0354 21.2469 76.1526 20.7811 76.1526 20.257C76.1526 19.7184 76.0354 19.2598 75.8013 18.8813C75.5671 18.4883 75.245 18.1825 74.8351 17.9642C74.4399 17.7458 73.9788 17.6366 73.4518 17.6366C73.0126 17.6366 72.6101 17.7458 72.2441 17.9642C71.8782 18.1825 71.5854 18.4883 71.3658 18.8813C71.1608 19.2744 71.0583 19.7329 71.0583 20.257ZM80.7392 20.519C80.7392 19.369 80.9808 18.3645 81.4638 17.5056C81.9469 16.6321 82.6276 15.9552 83.5059 15.4748C84.3842 14.9944 85.4089 14.7542 86.58 14.7542C87.7511 14.7542 88.7684 14.9944 89.6322 15.4748C90.5104 15.9552 91.1911 16.6321 91.6741 17.5056C92.1572 18.3645 92.3988 19.369 92.3988 20.519C92.3988 21.6691 92.1572 22.6736 91.6741 23.5325C91.1911 24.3914 90.5104 25.061 89.6322 25.5414C88.7684 26.0218 87.7511 26.262 86.58 26.262C85.4089 26.262 84.3842 26.0218 83.5059 25.5414C82.6276 25.061 81.9469 24.3914 81.4638 23.5325C80.9808 22.6736 80.7392 21.6691 80.7392 20.519ZM84.1426 20.4972C84.1426 21.0504 84.2451 21.5381 84.45 21.9603C84.655 22.3679 84.9404 22.6881 85.3065 22.9211C85.6724 23.1394 86.0969 23.2486 86.58 23.2486C87.0631 23.2486 87.4876 23.1394 87.8535 22.9211C88.2195 22.6881 88.4976 22.3679 88.688 21.9603C88.8929 21.5381 88.9953 21.0504 88.9953 20.4972C88.9953 19.944 88.8929 19.4636 88.688 19.056C88.4976 18.6484 88.2195 18.3354 87.8535 18.117C87.4876 17.8841 87.0631 17.7676 86.58 17.7676C86.0969 17.7676 85.6724 17.8841 85.3065 18.117C84.9404 18.3354 84.655 18.6484 84.45 19.056C84.2451 19.4636 84.1426 19.944 84.1426 20.4972ZM93.8211 26V15.0818H97.2245V26H93.8211ZM95.5338 13.3785C94.9922 13.3785 94.531 13.1965 94.1504 12.8326C93.7845 12.4541 93.6015 11.9955 93.6015 11.4569C93.6015 10.9183 93.7845 10.467 94.1504 10.103C94.531 9.7391 94.9922 9.55713 95.5338 9.55713C96.0608 9.55713 96.5072 9.7391 96.8732 10.103C97.2538 10.467 97.4441 10.9183 97.4441 11.4569C97.4441 11.9955 97.2538 12.4541 96.8732 12.8326C96.5072 13.1965 96.0608 13.3785 95.5338 13.3785ZM99.4253 31.2408V15.0818H102.522L102.697 16.4138C103.004 15.9043 103.495 15.4967 104.168 15.1909C104.842 14.8852 105.567 14.7324 106.342 14.7324C107.367 14.7324 108.259 14.958 109.021 15.4093C109.782 15.8606 110.382 16.5084 110.822 17.3528C111.26 18.1825 111.494 19.187 111.525 20.3662C111.554 21.5162 111.363 22.5426 110.953 23.4451C110.543 24.3331 109.951 25.0319 109.175 25.5414C108.398 26.051 107.462 26.3057 106.364 26.3057C105.603 26.3057 104.893 26.1747 104.234 25.9127C103.576 25.6506 103.085 25.3158 102.763 24.9082V31.2408H99.4253ZM102.828 20.5409C102.828 21.0795 102.938 21.5599 103.158 21.9821C103.393 22.3897 103.707 22.71 104.103 22.9429C104.512 23.1613 104.98 23.2704 105.507 23.2704C106.049 23.2704 106.511 23.154 106.891 22.9211C107.286 22.6881 107.587 22.3679 107.791 21.9603C108.011 21.5526 108.121 21.0795 108.121 20.5409C108.121 20.0022 108.011 19.5291 107.791 19.1215C107.587 18.7139 107.286 18.3936 106.891 18.1607C106.511 17.9278 106.049 17.8113 105.507 17.8113C104.98 17.8113 104.512 17.9278 104.103 18.1607C103.707 18.3791 103.393 18.6921 103.158 19.0997C102.938 19.5073 102.828 19.9877 102.828 20.5409ZM112.104 22.5498H115.157C115.157 22.9283 115.28 23.2268 115.53 23.4451C115.793 23.6635 116.173 23.7727 116.671 23.7727C116.964 23.7727 117.206 23.7363 117.396 23.6635C117.601 23.5907 117.755 23.4888 117.857 23.3578C117.974 23.2122 118.032 23.0521 118.032 22.8774C118.032 22.6881 117.967 22.528 117.835 22.397C117.718 22.266 117.513 22.1641 117.22 22.0913L115.288 21.589C114.204 21.2979 113.436 20.8684 112.983 20.3007C112.528 19.7329 112.302 19.0851 112.302 18.3572C112.302 17.6293 112.485 16.9961 112.851 16.4575C113.231 15.9043 113.744 15.4821 114.387 15.1909C115.032 14.8852 115.756 14.7324 116.561 14.7324C117.776 14.7324 118.772 15.0672 119.548 15.7369C120.338 16.3919 120.756 17.2872 120.8 18.4227H117.747C117.762 18.0442 117.652 17.7458 117.418 17.5274C117.184 17.2945 116.876 17.1781 116.496 17.1781C116.159 17.1781 115.881 17.2654 115.661 17.4401C115.456 17.6002 115.354 17.8259 115.354 18.117C115.354 18.3936 115.456 18.5974 115.661 18.7285C115.867 18.8449 116.144 18.9468 116.496 19.0342L118.45 19.5146C119.358 19.7329 120.046 20.1042 120.514 20.6282C120.983 21.1523 121.216 21.822 121.216 22.6372C121.216 23.7581 120.8 24.6461 119.965 25.3012C119.131 25.9563 118.048 26.2839 116.715 26.2839C115.34 26.2839 114.233 25.9418 113.4 25.2576C112.579 24.5588 112.148 23.6562 112.104 22.5498ZM126.612 26.2839C125.324 26.2839 124.328 25.8835 123.625 25.0829C122.924 24.2822 122.572 23.234 122.572 21.9384V15.0818H125.953V20.7156C125.953 21.7346 126.136 22.4188 126.502 22.7682C126.868 23.1176 127.351 23.2923 127.951 23.2923C128.728 23.2923 129.262 23.0739 129.554 22.6372C129.847 22.2005 129.994 21.5745 129.994 20.7592V15.0818H133.375V26H130.192L129.971 24.7772C129.635 25.2284 129.159 25.5924 128.545 25.869C127.929 26.1456 127.286 26.2839 126.612 26.2839ZM138.957 26H135.553V15.0818H138.716L138.957 16.9597L138.584 16.5666C138.877 16.0134 139.316 15.5694 139.901 15.2346C140.502 14.8852 141.145 14.7105 141.834 14.7105C142.917 14.7105 143.766 14.9507 144.381 15.4311C145.011 15.9115 145.464 16.5448 145.742 17.3309H145.215C145.391 16.5448 145.815 15.9115 146.489 15.4311C147.162 14.9507 147.967 14.7105 148.904 14.7105C150.324 14.7105 151.371 15.089 152.044 15.846C152.717 16.603 153.054 17.6075 153.054 18.8595V26H149.761V19.6893C149.761 19.005 149.592 18.4955 149.255 18.1607C148.933 17.8259 148.502 17.6585 147.96 17.6585C147.638 17.6585 147.33 17.7313 147.038 17.8768C146.745 18.0078 146.503 18.248 146.313 18.5974C146.123 18.9323 146.027 19.4127 146.027 20.0386V26H142.69V19.6893C142.69 19.005 142.529 18.5028 142.207 18.1825C141.884 17.8477 141.453 17.6803 140.911 17.6803C140.589 17.6803 140.274 17.7531 139.967 17.8987C139.674 18.0297 139.433 18.2699 139.243 18.6193C139.053 18.9541 138.957 19.4272 138.957 20.0386V26Z" fill="#1B3D5B"/>
</g>
<defs>
<linearGradient id="paint0_linear_423_545" x1="26.1825" y1="9.24274" x2="26.1825" y2="20.0635" gradientUnits="userSpaceOnUse">
<stop stop-color="#25136D"/>
<stop offset="1" stop-color="#3D9BA2"/>
</linearGradient>
<linearGradient id="paint1_linear_423_545" x1="19.6619" y1="6.69435" x2="25.0573" y2="16.0914" gradientUnits="userSpaceOnUse">
<stop stop-color="#25136D"/>
<stop offset="1" stop-color="#3D9BA2"/>
</linearGradient>
<linearGradient id="paint2_linear_423_545" x1="12.7333" y1="7.72962" x2="22.1303" y2="13.1851" gradientUnits="userSpaceOnUse">
<stop stop-color="#25136D"/>
<stop offset="1" stop-color="#3D9BA2"/>
</linearGradient>
<linearGradient id="paint3_linear_423_545" x1="7.25317" y1="12.0713" x2="18.1341" y2="12.0713" gradientUnits="userSpaceOnUse">
<stop stop-color="#25136D"/>
<stop offset="1" stop-color="#3D9BA2"/>
</linearGradient>
<linearGradient id="paint4_linear_423_545" x1="4.6898" y1="18.5561" x2="14.0868" y2="13.1006" gradientUnits="userSpaceOnUse">
<stop stop-color="#25136D"/>
<stop offset="1" stop-color="#3D9BA2"/>
</linearGradient>
<linearGradient id="paint5_linear_423_545" x1="5.72981" y1="25.4467" x2="11.1252" y2="16.0497" gradientUnits="userSpaceOnUse">
<stop stop-color="#25136D"/>
<stop offset="1" stop-color="#3D9BA2"/>
</linearGradient>
<linearGradient id="paint6_linear_423_545" x1="10.0948" y1="30.8968" x2="10.0948" y2="20.076" gradientUnits="userSpaceOnUse">
<stop stop-color="#25136D"/>
<stop offset="1" stop-color="#3D9BA2"/>
</linearGradient>
<linearGradient id="paint7_linear_423_545" x1="16.6151" y1="33.4462" x2="11.2197" y2="24.0492" gradientUnits="userSpaceOnUse">
<stop stop-color="#25136D"/>
<stop offset="1" stop-color="#3D9BA2"/>
</linearGradient>
<linearGradient id="paint8_linear_423_545" x1="23.5439" y1="32.4119" x2="14.147" y2="26.9563" gradientUnits="userSpaceOnUse">
<stop stop-color="#25136D"/>
<stop offset="1" stop-color="#3D9BA2"/>
</linearGradient>
<linearGradient id="paint9_linear_423_545" x1="29.0243" y1="28.071" x2="18.1434" y2="28.071" gradientUnits="userSpaceOnUse">
<stop stop-color="#25136D"/>
<stop offset="1" stop-color="#3D9BA2"/>
</linearGradient>
<linearGradient id="paint10_linear_423_545" x1="31.5879" y1="21.5868" x2="22.1909" y2="27.0423" gradientUnits="userSpaceOnUse">
<stop stop-color="#25136D"/>
<stop offset="1" stop-color="#3D9BA2"/>
</linearGradient>
<linearGradient id="paint11_linear_423_545" x1="30.5479" y1="14.6962" x2="25.1525" y2="24.0932" gradientUnits="userSpaceOnUse">
<stop stop-color="#25136D"/>
<stop offset="1" stop-color="#3D9BA2"/>
</linearGradient>
<clipPath id="clip0_423_545">
<rect width="153.85" height="38" fill="white" transform="translate(0.755554)"/>
</clipPath>
</defs>
</svg>
