<svg width="76" height="60" viewBox="0 0 76 60" fill="none" xmlns="http://www.w3.org/2000/svg">
<path d="M25.5656 20.621C25.5656 20.4686 25.5656 18.2513 25.5656 18.2513H24.2407C24.2407 18.2513 24.2407 20.4342 24.2407 20.5031C24.2407 20.9062 23.865 21.1766 23.2322 21.1766C22.5698 21.1766 22.2089 20.916 22.2089 20.4981C22.2089 20.4293 22.2089 18.2513 22.2089 18.2513H20.8691C20.8691 18.2513 20.8691 20.3211 20.8691 20.4981C20.8691 21.6682 21.8331 22.1648 23.1778 22.1648C24.6165 22.1648 25.5656 21.6633 25.5656 20.621Z" fill="#394149"/>
<path d="M30.0277 22.1107V21.0832H27.6646V18.2513H26.3248V22.1107H30.0277Z" fill="#394149"/>
<path d="M34.0094 19.2199V18.2513H29.3771V19.2199H31.0134V22.1107H32.368V19.2199H34.0094Z" fill="#394149"/>
<path d="M35.7905 22.1107V18.2513H34.431V22.1107H35.7905Z" fill="#394149"/>
<path d="M42.0279 22.1107V18.2513H40.3519L39.294 20.567L38.2855 18.2513H36.5551V22.1107H37.8158V20.0262L38.7254 22.1107H39.8527L40.7721 20.0262V22.1107H42.0279Z" fill="#394149"/>
<path d="M44.1277 21.3978H46.2239L46.5651 22.1107H47.9938L46.036 18.2513H44.4392L42.3678 22.1107H43.7668L44.1277 21.3978ZM45.8037 20.5325H44.5628L45.0522 19.6033L45.2005 19.2494L45.339 19.5984L45.8037 20.5325Z" fill="#394149"/>
<path d="M52.1958 19.2199V18.2513H47.5638V19.2199H49.2001V22.1107H50.5548V19.2199H52.1958Z" fill="#394149"/>
<path d="M56.7007 22.1107V21.152H53.9184V20.6505H56.5871V19.7115H53.9184V19.2149H56.6666V18.2513H52.6132V22.1107H56.7007Z" fill="#394149"/>
<path d="M30.9728 24.1623H29.6923C29.6923 24.1623 28.8568 26.591 28.8568 26.65C28.8568 26.591 28.0757 24.1623 28.0757 24.1623H26.6865C26.6865 24.1623 25.9103 26.591 25.9103 26.65C25.9103 26.591 25.0699 24.1623 25.0699 24.1623H23.6312L25.0848 28.0217H26.5333C26.5333 28.0217 27.3144 25.7159 27.3193 25.652C27.3242 25.7159 28.1004 28.0217 28.1004 28.0217H29.5538L30.9728 24.1623Z" fill="#394149"/>
<path d="M32.7248 28.0217V24.1623H31.3653V28.0217H32.7248Z" fill="#394149"/>
<path d="M38.013 28.0217V24.1623H36.7474V26.2616L34.8836 24.1623H33.4894V28.0217H34.765V25.8732L36.6881 28.0217H38.013Z" fill="#394149"/>
<path d="M43.3092 28.0217V24.1623H42.0436V26.2616L40.1798 24.1623H38.7857V28.0217H40.0611V25.8732L41.9842 28.0217H43.3092Z" fill="#394149"/>
<path d="M48.1703 28.0217V27.063H45.387V26.5615H48.0566V25.6225H45.387V25.1259H48.1357V24.1623H44.0818V28.0217H48.1703Z" fill="#394149"/>
<path d="M53.3965 25.3373C53.3965 24.9883 53.312 24.7375 53.134 24.5556C52.9017 24.3098 52.5015 24.1623 51.8881 24.1623H48.7987V28.0217H50.1187V26.6599H51.32L52.2843 28.0217H53.7575L52.586 26.4484C52.8474 26.4091 53.0606 26.2518 53.1984 26.065C53.3221 25.8929 53.3965 25.6372 53.3965 25.3373ZM52.1114 25.4602C52.1114 25.5242 52.1013 25.6028 52.0661 25.6618C52.0169 25.7601 51.8881 25.7995 51.676 25.7995H50.1236V25.0964H51.6508C51.859 25.0964 51.9978 25.1308 52.0661 25.2587C52.1013 25.3078 52.1114 25.3865 52.1114 25.4602Z" fill="#394149"/>
<path d="M26.123 31.8187C26.123 31.7556 26.123 29.9328 26.123 29.9328H25.6601C25.6601 29.9328 25.6601 31.7481 25.6601 31.789C25.6601 32.227 25.2457 32.4758 24.6484 32.4758C23.9429 32.4758 23.5957 32.2085 23.5957 31.7853C23.5957 31.7444 23.5957 29.9328 23.5957 29.9328H23.1292C23.1292 29.9328 23.1292 31.6999 23.1292 31.7704C23.1292 32.5426 23.7339 32.8841 24.6298 32.8841C25.5556 32.8841 26.123 32.5203 26.123 31.8187Z" fill="#394149"/>
<path d="M29.4443 32.847V32.4201H27.4247V29.9328H26.9581V32.847H29.4443Z" fill="#394149"/>
<path d="M32.0957 30.356V29.9328H28.9823V30.356H30.3038V32.847H30.7742V30.356H32.0957Z" fill="#394149"/>
<path d="M35.4136 30.7569C35.4136 30.549 35.3688 30.3968 35.2905 30.2743C35.1523 30.0701 34.8872 29.9328 34.4468 29.9328H32.5504V32.847H33.0096V31.6182H34.3459L35.1635 32.847H35.701L34.8163 31.5402C35.0403 31.5143 35.2157 31.388 35.3091 31.2247C35.3763 31.1133 35.4136 30.95 35.4136 30.7569ZM34.9507 30.794C34.9507 30.8757 34.9321 30.976 34.8985 31.0428C34.8388 31.1504 34.7006 31.2061 34.4767 31.2098H33.0133C33.0133 31.2024 33.0133 30.3486 33.0133 30.3486H34.3908C34.6707 30.3486 34.8201 30.4154 34.8985 30.5416C34.9321 30.601 34.9507 30.7012 34.9507 30.794Z" fill="#394149"/>
<path d="M36.7421 32.1268H38.5676L38.9408 32.847H39.4411L37.9553 29.9328H37.4066L35.8723 32.847H36.3613L36.7421 32.1268ZM38.3734 31.7147H36.9437L37.5372 30.5973L37.6679 30.3263L37.7985 30.5973L38.3734 31.7147Z" fill="#394149"/>
<path d="M44.1755 32.5686C44.2913 32.4349 44.3436 32.2456 44.3436 32.0414C44.3436 31.8484 44.2876 31.6553 44.1718 31.5365C44.0561 31.4252 43.8695 31.3324 43.6641 31.3138C43.7836 31.2952 43.8769 31.221 43.9403 31.143C44.0412 31.0279 44.1008 30.8423 44.1008 30.6567C44.1008 30.4599 44.0412 30.2817 43.9142 30.1592C43.7761 30.0219 43.5409 29.9328 43.2124 29.9328H41.2413V32.847H43.358C43.7537 32.847 44.0299 32.7468 44.1755 32.5686ZM43.6193 30.7495C43.6193 30.8794 43.5782 30.9945 43.5074 31.0613C43.4364 31.1393 43.3169 31.1727 43.19 31.1727H41.6967V30.3337H43.1041C43.2759 30.3337 43.4065 30.3671 43.4961 30.4488C43.5745 30.523 43.6193 30.6307 43.6193 30.7495ZM43.7686 32.2864C43.6753 32.3904 43.5148 32.4424 43.2796 32.4424H41.6967V31.5774H43.2909C43.5074 31.5774 43.6567 31.6219 43.7463 31.7073C43.8283 31.7853 43.862 31.8855 43.862 32.0006C43.862 32.1194 43.8359 32.2196 43.7686 32.2864Z" fill="#394149"/>
<path d="M47.7325 32.847V32.4201H45.4554V31.5885H47.6429V31.1653H45.4554V30.356H47.7064V29.9328H44.9999V32.847H47.7325Z" fill="#394149"/>
<path d="M51.3793 31.9857C51.3793 31.5105 51.0626 31.2655 50.2823 31.1764C50.1513 31.1579 49.8675 31.1282 49.7144 31.1096C48.9902 31.0242 48.77 30.9277 48.77 30.679C48.77 30.4377 49.0127 30.3003 49.7443 30.3003C50.3114 30.3003 50.6031 30.4117 50.7489 30.6121C50.7901 30.6678 50.8122 30.7347 50.8233 30.7866H51.323C51.309 30.7012 51.2748 30.5824 51.2225 30.4859C51.0214 30.1407 50.6071 29.8919 49.7443 29.8919C48.714 29.8882 48.2885 30.2595 48.2885 30.7198C48.2885 31.1801 48.6207 31.414 49.4831 31.5143C49.6324 31.5328 49.8974 31.5625 50.0281 31.5774C50.6966 31.659 50.9057 31.7593 50.9057 32.0377C50.9057 32.2939 50.6664 32.4795 49.9011 32.4795C49.274 32.4795 48.938 32.3681 48.8036 32.1528C48.7626 32.0934 48.7364 32.0006 48.7327 31.9375H48.2399C48.2512 32.0711 48.2885 32.2159 48.3556 32.331C48.5498 32.6837 49.0052 32.8879 49.8862 32.8879C50.9389 32.8879 51.3793 32.55 51.3793 31.9857Z" fill="#394149"/>
<path d="M54.7268 30.356V29.9328H51.6136V30.356H52.9349V32.847H53.4055V30.356H54.7268Z" fill="#394149"/>
<path d="M21.8078 35.38C21.8078 35.083 21.748 34.8825 21.6472 34.7303C21.5054 34.5112 21.2291 34.3962 20.7475 34.3962H18.896V37.3104H19.3588V36.36C19.3588 36.36 20.6654 36.36 20.7289 36.36C21.1806 36.3563 21.4904 36.2524 21.6547 36.0148C21.7592 35.87 21.8078 35.6621 21.8078 35.38ZM21.3374 35.38C21.3374 35.5284 21.3224 35.6398 21.2739 35.7141C21.188 35.8514 21.0126 35.9368 20.6505 35.9368C20.6169 35.9368 19.3588 35.9368 19.3588 35.9368V34.812H20.6654C21.0051 34.812 21.1806 34.8899 21.2739 35.0421C21.3187 35.1089 21.3374 35.2315 21.3374 35.38Z" fill="#394149"/>
<path d="M25.1866 37.3104V36.8835H22.9095V36.0519H25.097V35.6287H22.9095V34.8194H25.1605V34.3962H22.454V37.3104H25.1866Z" fill="#394149"/>
<path d="M28.7477 35.2203C28.7477 35.0124 28.703 34.8602 28.6245 34.7377C28.4864 34.5335 28.2214 34.3962 27.7809 34.3962H25.8845V37.3104H26.3436V36.0816H27.6801L28.4976 37.3104H29.0352L28.1504 36.0036C28.3744 35.9777 28.5499 35.8514 28.6432 35.6881C28.7104 35.5767 28.7477 35.4134 28.7477 35.2203ZM28.2849 35.2574C28.2849 35.3391 28.2661 35.4394 28.2326 35.5062C28.1728 35.6138 28.0347 35.6695 27.8107 35.6732H26.3473C26.3473 35.6658 26.3473 34.812 26.3473 34.812H27.7249C28.0048 34.812 28.1541 34.8788 28.2326 35.005C28.2661 35.0644 28.2849 35.1646 28.2849 35.2574Z" fill="#394149"/>
<path d="M32.2086 34.8194V34.3962H29.6029V37.3104H30.0658V36.0705H32.1116V35.6361H30.0658V34.8194H32.2086Z" fill="#394149"/>
<path d="M34.3333 34.3442C33.7098 34.3442 33.2806 34.4964 32.9744 34.8157C32.7168 35.0644 32.6048 35.4097 32.6048 35.844C32.6048 36.3192 32.7504 36.6756 33.0192 36.9169C33.3067 37.2028 33.7471 37.3512 34.3333 37.3512C34.938 37.3512 35.4083 37.2028 35.6884 36.902C35.931 36.657 36.0579 36.3081 36.0579 35.8403C36.0579 35.3874 35.9496 35.0421 35.6921 34.7971C35.3972 34.4927 34.9566 34.3442 34.3333 34.3442ZM34.3333 36.9355C33.9226 36.9355 33.6314 36.8464 33.4112 36.6682C33.1872 36.4863 33.0789 36.2078 33.0789 35.8514C33.0789 35.5173 33.1723 35.2389 33.3515 35.0718C33.5568 34.8788 33.8703 34.7637 34.3296 34.7637C34.8036 34.7637 35.0985 34.8751 35.3187 35.0681C35.5055 35.2315 35.5875 35.521 35.5875 35.8477C35.5875 36.1781 35.5017 36.4603 35.3113 36.631C35.0911 36.8352 34.7813 36.9355 34.3333 36.9355Z" fill="#394149"/>
<path d="M39.5605 35.2203C39.5605 35.0124 39.5156 34.8602 39.4373 34.7377C39.2991 34.5335 39.034 34.3962 38.5936 34.3962H36.6972V37.3104H37.1564V36.0816H38.4928L39.3104 37.3104H39.8478L38.9632 36.0036C39.1871 35.9777 39.3626 35.8514 39.4559 35.6881C39.5231 35.5767 39.5605 35.4134 39.5605 35.2203ZM39.0975 35.2574C39.0975 35.3391 39.0789 35.4394 39.0453 35.5062C38.9856 35.6138 38.8474 35.6695 38.6235 35.6732H37.1601C37.1601 35.6658 37.1601 34.812 37.1601 34.812H38.5376C38.8175 34.812 38.9669 34.8788 39.0453 35.005C39.0789 35.0644 39.0975 35.1646 39.0975 35.2574Z" fill="#394149"/>
<path d="M44.0255 37.3104V34.3962H43.4208L42.215 36.7944L41.0316 34.3962H40.4157V37.3104H40.8599V35.0681L41.9648 37.3104H42.4501L43.5813 35.0681V37.3104H44.0255Z" fill="#394149"/>
<path d="M45.3365 36.5902H47.1619L47.5352 37.3104H48.0355L46.5497 34.3962H46.0009L44.4666 37.3104H44.9556L45.3365 36.5902ZM46.9678 36.1781H45.5381L46.1315 35.0607L46.2623 34.7897L46.3929 35.0607L46.9678 36.1781Z" fill="#394149"/>
<path d="M51.3985 37.3104V34.3962H50.954V36.6607L49.0133 34.3962H48.4869V37.3104H48.9386V35.031L50.8947 37.3104H51.3985Z" fill="#394149"/>
<path d="M55.4257 36.2227H54.94C54.9249 36.3563 54.8726 36.49 54.7791 36.5902C54.578 36.8241 54.2572 36.9243 53.7645 36.9243C53.3502 36.9243 52.9058 36.8092 52.6926 36.5085C52.581 36.3675 52.5096 36.1596 52.5096 35.8477C52.5096 35.5693 52.5589 35.3614 52.6665 35.2203C52.8454 34.9345 53.2225 34.786 53.7535 34.786C54.2683 34.786 54.5931 34.927 54.765 35.1238C54.8616 35.2277 54.9179 35.3503 54.936 35.495H55.4217C55.4066 35.3317 55.3543 35.1386 55.2427 34.9753C55.0034 34.6226 54.5629 34.3442 53.7565 34.3442C52.9882 34.3442 52.5287 34.5892 52.2743 34.9567C52.1104 35.1683 52.0279 35.4653 52.0279 35.844C52.0279 36.2672 52.1295 36.5791 52.3045 36.7981C52.5589 37.1434 53.0476 37.3512 53.7866 37.3512C54.5448 37.3512 54.9963 37.1248 55.2206 36.7647C55.3473 36.5902 55.4106 36.3823 55.4257 36.2227Z" fill="#394149"/>
<path d="M58.7661 37.3104V36.8835H56.4886V36.0519H58.6767V35.6287H56.4886V34.8194H58.74V34.3962H56.0331V37.3104H58.7661Z" fill="#394149"/>
<path d="M24.6263 40.2054L25.1846 41.9142H26.9913L25.5297 42.9703L26.088 44.679L24.6263 43.623L23.1647 44.679L23.7231 42.9703L22.2614 41.9142H24.0681L24.6263 40.2054Z" fill="#394149"/>
<path d="M31.0716 40.2055L31.6412 41.9142H33.4848L31.9934 42.9703L32.563 44.6791L31.0716 43.623L29.5801 44.6791L30.1498 42.9703L28.6583 41.9142H30.5019L31.0716 40.2055Z" fill="#394149"/>
<path d="M37.4658 40.2055L38.0355 41.9142H39.879L38.3876 42.9703L38.9573 44.6791L37.4658 43.623L35.9743 44.6791L36.544 42.9703L35.0526 41.9142H36.8961L37.4658 40.2055Z" fill="#394149"/>
<path d="M43.8602 40.2055L44.4298 41.9142H46.2734L44.782 42.9703L45.3516 44.6791L43.8602 43.623L42.3688 44.6791L42.9384 42.9703L41.447 41.9142H43.2905L43.8602 40.2055Z" fill="#394149"/>
<path d="M50.3054 40.2055L50.8635 41.9142H52.6705L51.2084 42.9703L51.7665 44.6791L50.3054 43.623L48.8436 44.6791L49.402 42.9703L47.9403 41.9142H49.747L50.3054 40.2055Z" fill="#394149"/>
<path d="M27.7578 11.3762L28.18 12.6682H29.546L28.4409 13.4667L28.863 14.7586L27.7578 13.9602L26.6527 14.7586L27.0749 13.4667L25.9698 12.6682H27.3358L27.7578 11.3762Z" fill="#394149"/>
<path d="M32.6311 11.3744L33.0619 12.6664H34.4557L33.328 13.4649L33.7587 14.7568L32.6311 13.9583L31.5033 14.7568L31.9341 13.4649L30.8064 12.6664H32.2003L32.6311 11.3744Z" fill="#394149"/>
<path d="M37.4656 11.3744L37.8963 12.6664H39.2902L38.1625 13.4649L38.5932 14.7568L37.4656 13.9583L36.3379 14.7568L36.7686 13.4649L35.6409 12.6664H37.0348L37.4656 11.3744Z" fill="#394149"/>
<path d="M42.3008 11.3744L42.7315 12.6664H44.1254L42.9977 13.4649L43.4284 14.7568L42.3008 13.9583L41.1731 14.7568L41.6038 13.4649L40.4761 12.6664H41.87L42.3008 11.3744Z" fill="#394149"/>
<path d="M47.1732 11.3744L47.5953 12.6664H48.9614L47.8563 13.4649L48.2784 14.7568L47.1732 13.9583L46.0681 14.7568L46.4902 13.4649L45.3851 12.6664H46.7511L47.1732 11.3744Z" fill="#394149"/>
<path fill-rule="evenodd" clip-rule="evenodd" d="M8.30075 34.6304C6.43786 23.0395 11.8747 11.5717 22.7589 6.64709L22.8594 6.86669C12.0847 11.7417 6.69277 23.0973 8.54027 34.5923C10.5843 47.3096 20.9007 54.9366 33.534 55.3043L33.5268 55.5455C20.7951 55.1749 10.3658 47.4789 8.30075 34.6304Z" fill="#394149"/>
<path d="M20.399 9.60519C18.3876 9.65079 16.0335 10.7788 14.6444 12.4172C15.7583 13.4459 17.5506 13.0656 18.8405 12.8552C20.6813 12.555 22.6389 11.9734 24.376 11.1501C23.6618 9.63809 21.7378 9.57489 20.399 9.60519Z" fill="#394149"/>
<path d="M18.8172 7.1376C17.6258 8.9832 16.2059 10.8175 14.6608 12.4328C13.368 11.226 14.1484 9.2177 14.676 7.9688C15.6318 5.7058 17.9233 3.7543 20.319 2.7558C20.9766 4.2435 19.5484 6.0048 18.8172 7.1376Z" fill="#394149"/>
<path d="M14.5784 14.7807C12.695 15.4465 11.0766 17.3207 10.264 19.2023C11.6183 19.8285 13.1579 18.9242 14.2842 18.3221C15.8307 17.4953 17.4086 16.3545 18.65 15.0343C17.5283 13.8573 15.8251 14.3401 14.5784 14.7807Z" fill="#394149"/>
<path d="M12.2954 12.9365C11.8831 15.0415 11.1919 17.2233 10.2841 19.2119C8.69954 18.4687 8.75987 16.3401 8.82775 14.9855C8.94359 12.6734 10.2443 10.0368 12.0552 8.36121C13.1638 9.54321 12.5581 11.5956 12.2954 12.9365Z" fill="#394149"/>
<path d="M10.9545 21.4625C9.38513 22.6937 8.43388 24.9754 8.21356 27.0129C9.69816 27.1824 10.8848 25.8388 11.7678 24.917C12.9699 23.6619 14.1079 22.0877 14.8306 20.4408C13.4154 19.673 11.9768 20.6605 10.9545 21.4625Z" fill="#394149"/>
<path d="M8.23549 20.4231C8.51534 22.5488 8.51594 24.8485 8.23599 27.0157C6.50946 26.8048 5.93679 24.7432 5.59852 23.4499C5.0145 21.2175 5.40606 18.3339 6.54375 16.1637C7.9655 16.9464 8.0567 19.0644 8.23549 20.4231Z" fill="#394149"/>
<path d="M9.7229 28.756C8.48104 30.5651 8.04432 33.4002 8.60281 35.679C10.2439 35.2926 11.0574 33.4449 11.7106 32.14C12.5787 30.4057 13.3124 28.3824 13.5751 26.3973C11.7951 26.0289 10.5409 27.5642 9.7229 28.756Z" fill="#394149"/>
<path d="M6.46287 28.5731C7.43042 30.8008 8.18549 33.2527 8.62733 35.6735C6.74523 36.0756 5.39065 34.1102 4.6037 32.807C3.20266 30.4872 2.79451 27.2713 3.30774 24.4961C5.03036 24.8396 5.87332 27.2161 6.46287 28.5731Z" fill="#394149"/>
<path d="M10.5916 36.6271C9.92482 38.8217 10.3883 41.8052 11.7383 43.8684C13.2219 42.9078 13.4273 40.7936 13.6375 39.2777C13.9148 37.2773 14.0453 35.0613 13.7009 32.987C11.8033 33.2279 11.037 35.161 10.5916 36.6271Z" fill="#394149"/>
<path d="M7.29398 37.5666C8.95878 39.4663 10.4945 41.6323 11.761 43.8542C10.0433 44.9206 8.02763 43.4637 6.80518 42.4327C4.63649 40.6038 3.22831 37.4953 2.89447 34.5647C4.69924 34.3235 6.28973 36.4205 7.29398 37.5666Z" fill="#394149"/>
<path d="M14.0904 44.0967C14.2335 46.6512 15.9058 49.3317 18.1326 50.8574C19.2079 49.3933 18.5339 47.15 18.167 45.5841C17.6732 43.4758 16.9897 41.2804 15.974 39.3324C14.2028 40.2632 13.9962 42.4144 14.0904 44.0967Z" fill="#394149"/>
<path d="M11.0956 46.2545C13.508 47.5876 15.9135 49.1607 18.15 50.8346C16.8106 52.5886 14.1335 51.8892 12.4739 51.3254C9.54933 50.3319 6.94202 47.7129 5.5802 44.8032C7.30684 43.9187 9.6705 45.467 11.0956 46.2545Z" fill="#394149"/>
<path d="M20.9612 50.3374C22.4091 52.9652 25.7086 54.6795 28.8158 55.0922C29.1502 53.1818 27.0717 51.2903 25.939 50.0529C24.3264 48.2912 22.646 46.463 20.762 44.9398C19.3505 46.5696 20.0967 48.7685 20.9612 50.3374Z" fill="#394149"/>
<path d="M18.8934 53.6678C22.1847 54.0081 25.5317 54.498 28.8211 55.0629C28.5071 57.4733 24.6607 57.8623 22.9146 58.0046C19.3343 58.2964 15.3515 56.8652 12.5783 54.4558C13.9557 52.844 17.1402 53.4866 18.8934 53.6678Z" fill="#394149"/>
<path d="M25.2328 4.62401C23.0231 5.25091 20.4366 6.44021 19.1588 8.63561C21.4782 8.38421 23.7577 7.56351 25.9869 6.93821C28.4839 6.23771 31.1131 5.71381 33.5306 4.74691C30.883 3.69351 27.762 3.90641 25.2328 4.62401Z" fill="#394149"/>
<path fill-rule="evenodd" clip-rule="evenodd" d="M67.9821 34.5923C69.8293 23.0973 64.4375 11.7419 53.663 6.86669L53.7635 6.64709C64.6476 11.5718 70.0847 23.0395 68.2214 34.6304C66.157 47.4789 55.7274 55.1749 42.9956 55.5455L42.9886 55.3043C55.6218 54.9366 65.9378 47.3096 67.9821 34.5923Z" fill="#394149"/>
<path d="M56.1235 9.60519C58.1347 9.65079 60.4887 10.7788 61.8783 12.4172C60.7642 13.4459 58.9713 13.0656 57.6822 12.8552C55.841 12.555 53.8832 11.9734 52.1466 11.1501C52.8605 9.63809 54.7841 9.57489 56.1235 9.60519Z" fill="#394149"/>
<path d="M57.7053 7.1376C58.8969 8.9832 60.3167 10.8175 61.8612 12.4328C63.1544 11.226 62.3741 9.2177 61.8462 7.9688C60.8909 5.7058 58.5992 3.7543 56.203 2.7558C55.5453 4.2435 56.9742 6.0048 57.7053 7.1376Z" fill="#394149"/>
<path d="M61.9447 14.7807C63.8281 15.4465 65.4461 17.3207 66.2586 19.2023C64.9041 19.8285 63.3646 18.9242 62.2383 18.3221C60.6918 17.4953 59.1141 16.3545 57.8732 15.0343C58.9944 13.8573 60.6978 14.3401 61.9447 14.7807Z" fill="#394149"/>
<path d="M64.2273 12.9365C64.6396 15.0415 65.3304 17.2233 66.2384 19.2119C67.8232 18.4687 67.7629 16.3401 67.6945 14.9855C67.5788 12.6734 66.2787 10.0368 64.4677 8.36121C63.3585 9.54321 63.9649 11.5956 64.2273 12.9365Z" fill="#394149"/>
<path d="M65.5677 21.4625C67.1374 22.6937 68.0887 24.9754 68.3089 27.0129C66.8247 27.1824 65.6381 25.8388 64.7552 24.917C63.5526 23.6619 62.4143 22.0877 61.6923 20.4408C63.1071 19.673 64.5461 20.6605 65.5677 21.4625Z" fill="#394149"/>
<path d="M68.2877 20.4231C68.0072 22.5486 68.0072 24.8485 68.2867 27.0157C70.0133 26.8048 70.5864 24.7432 70.9243 23.4499C71.5085 21.2175 71.1164 18.3339 69.9791 16.1637C68.5572 16.9464 68.4657 19.0644 68.2877 20.4231Z" fill="#394149"/>
<path d="M66.7996 28.756C68.0414 30.5651 68.4778 33.4002 67.9197 35.679C66.2787 35.2926 65.4652 33.445 64.8116 32.14C63.9438 30.4057 63.2097 28.3824 62.9473 26.3973C64.7271 26.0289 65.982 27.5642 66.7996 28.756Z" fill="#394149"/>
<path d="M70.0596 28.5731C69.0922 30.8008 68.337 33.2527 67.8956 35.6735C69.777 36.0756 71.1315 34.1102 71.9188 32.807C73.3196 30.4872 73.7278 27.2713 73.215 24.4961C71.4925 24.8396 70.6488 27.2161 70.0596 28.5731Z" fill="#394149"/>
<path d="M65.9307 36.6271C66.5974 38.8217 66.1349 41.8052 64.7844 43.8684C63.3012 42.9078 63.0951 40.7936 62.8849 39.2777C62.6084 37.2773 62.4776 35.0613 62.8215 32.987C64.719 33.2279 65.4853 35.161 65.9307 36.6271Z" fill="#394149"/>
<path d="M69.228 37.5666C67.5638 39.4664 66.0283 41.6323 64.7613 43.8542C66.4788 44.9206 68.4949 43.4637 69.7177 42.4327C71.8857 40.6038 73.2944 37.4953 73.6283 34.5647C71.8233 34.3235 70.2325 36.4205 69.228 37.5666Z" fill="#394149"/>
<path d="M62.4314 44.0967C62.2886 46.6512 60.6164 49.3317 58.3901 50.8574C57.3141 49.3933 57.9888 47.1501 58.3549 45.5841C58.8486 43.4758 59.5324 41.2804 60.548 39.3324C62.3198 40.2632 62.5259 42.4144 62.4314 44.0967Z" fill="#394149"/>
<path d="M65.427 46.2545C63.0146 47.5876 60.6093 49.1607 58.373 50.8346C59.7124 52.5886 62.3892 51.8892 64.0483 51.3254C66.9735 50.3319 69.5809 47.7129 70.9424 44.8032C69.2159 43.9187 66.8518 45.467 65.427 46.2545Z" fill="#394149"/>
<path d="M55.5615 50.3374C54.1135 52.9652 50.8142 54.6795 47.7067 55.0922C47.3722 53.1818 49.4507 51.2903 50.584 50.0529C52.1959 48.2912 53.8761 46.463 55.7606 44.9398C57.1724 46.5696 56.4252 48.7685 55.5615 50.3374Z" fill="#394149"/>
<path d="M57.6289 53.6678C54.3377 54.0081 50.9912 54.498 47.7012 55.0629C48.0154 57.4733 51.862 57.8623 53.6077 58.0046C57.1884 58.2964 61.1715 56.8652 63.9438 54.4558C62.5672 52.844 59.3826 53.4866 57.6289 53.6678Z" fill="#394149"/>
<path d="M51.2899 4.62401C53.4991 5.25091 56.0864 6.44021 57.3634 8.63561C55.0446 8.38421 52.765 7.56351 50.5357 6.93821C48.0387 6.23771 45.4095 5.71381 42.9919 4.74691C45.6396 3.69351 48.7606 3.90641 51.2899 4.62401Z" fill="#394149"/>
<path d="M39.6982 3.4879L38.5644 1L37.452 3.4416L34.8648 1.8464L36.5273 5.3207H40.6617L42.2642 1.8464L39.6982 3.4879Z" fill="#394149"/>
<path d="M40.6352 5.8606H36.4942V6.4683H40.6352V5.8606Z" fill="#394149"/>
<path d="M38.8606 52.8718L39.5279 54.914H41.6871L39.9403 56.1761L40.6074 58.2183L38.8606 56.9562L37.1137 58.2183L37.781 56.1761L36.0342 54.914H38.1934L38.8606 52.8718Z" fill="#394149"/>
</svg>
