<svg width="165" height="42" viewBox="0 0 165 42" fill="none" xmlns="http://www.w3.org/2000/svg">
<path d="M30.6723 17.719C33.8277 17.719 34.5377 19.082 34.5377 20.782C34.5377 22.584 33.6789 23.875 30.6854 23.875C27.7109 23.875 26.8512 22.659 26.8512 20.782C26.8512 18.935 27.7884 17.719 30.6723 17.719Z" fill="#394149"/>
<path d="M63.6485 17.719C66.8039 17.719 67.5139 19.082 67.5139 20.782C67.5139 22.584 66.6541 23.875 63.6616 23.875C60.6881 23.875 59.8274 22.659 59.8274 20.782C59.8274 18.935 60.7646 17.719 63.6485 17.719Z" fill="#394149"/>
<path fill-rule="evenodd" clip-rule="evenodd" d="M2.73471 38.5V3.047H162.194V38.5H2.73471ZM78.7326 36.5H160.183V5.047H78.7326V36.5ZM30.6874 26.893C36.2893 26.893 38.6443 24.49 38.6443 20.737C38.6443 16.923 35.9917 14.656 30.6874 14.656C25.4645 14.656 22.7153 17.118 22.7153 20.737C22.7153 24.821 25.5993 26.893 30.6874 26.893ZM11.2108 14.926V26.713H22.5172V23.574H15.3014V14.926H11.2108ZM51.2983 26.713L51.1927 25.571C49.8242 26.5422 48.1586 27.0096 46.4816 26.893C43.9607 26.893 41.8611 26.142 40.6836 24.626C39.9069 23.5192 39.5148 22.1906 39.5664 20.842C39.5223 19.5217 39.928 18.2253 40.7178 17.163C41.9094 15.692 44.0693 14.716 47.2851 14.716C50.9845 14.716 53.1585 15.842 54.0937 17.734C54.2944 18.1796 54.4124 18.6576 54.4416 19.145H50.528C50.4294 18.8488 50.2458 18.5878 50.0001 18.394C49.2205 17.88 48.2895 17.6423 47.3575 17.719C46.8108 17.6531 46.2561 17.7033 45.7304 17.8664C45.2047 18.0295 44.7197 18.3017 44.3076 18.665C43.8396 19.302 43.6199 20.0862 43.6892 20.872C43.6349 21.6217 43.8369 22.3677 44.2624 22.989C44.6782 23.3743 45.1725 23.6661 45.7117 23.8449C46.251 24.0236 46.8224 24.0851 47.3876 24.025C48.5102 24.1158 49.6246 23.7715 50.4978 23.064C50.6854 22.8308 50.8147 22.5566 50.8749 22.264H46.6636V19.731H54.5442V26.713H51.2983ZM63.6636 26.893C69.2645 26.893 71.6205 24.49 71.6205 20.737C71.6205 16.923 68.9638 14.656 63.6636 14.656C58.4407 14.656 55.6915 17.118 55.6915 20.737C55.6915 24.821 58.5755 26.893 63.6636 26.893Z" fill="#394149"/>
<path d="M85.6229 26.668V14.881H88.539V26.668H85.6229Z" fill="#394149"/>
<path d="M103.514 21.743C102.775 22.704 101.503 23.143 99.7097 23.154C99.3316 23.154 94.3189 23.139 94.3189 23.139V26.668H91.4651V14.881H99.7107C100.372 14.8115 101.04 14.8812 101.672 15.0855C102.304 15.2899 102.885 15.6243 103.379 16.067C104.031 16.9112 104.347 17.9638 104.27 19.025C104.336 19.9902 104.07 20.9491 103.514 21.743ZM101.174 17.9C100.872 17.45 100.222 17.2 99.1204 17.2H94.3038V20.788H99.0893C100.267 20.788 100.887 20.548 101.174 20.082C101.344 19.7537 101.417 19.384 101.385 19.016C101.41 18.6322 101.338 18.2483 101.174 17.9Z" fill="#394149"/>
<path d="M112.679 26.848C107.304 26.848 105.659 24.848 105.659 22.869H108.708C108.708 23.845 110.052 24.581 112.815 24.581C115.562 24.581 116.287 24.1 116.287 23.319C116.287 22.448 115.744 22.178 113.192 21.893C112.689 21.848 111.321 21.683 110.807 21.608C107.187 21.202 105.793 20.136 105.793 18.229C105.793 16.217 107.833 14.701 112.256 14.701C117.058 14.701 118.9 16.578 118.9 18.53H115.883C115.883 17.539 114.751 16.968 112.078 16.968C109.33 16.968 108.742 17.343 108.742 18.079C108.742 18.845 109.345 19.085 112.261 19.43C112.926 19.521 114.405 19.686 114.812 19.73C117.893 20.045 119.282 21.156 119.282 23.123C119.277 25.466 117.163 26.848 112.679 26.848Z" fill="#394149"/>
<path d="M127.869 26.833C123.93 26.833 121.362 25.286 121.362 22.033V14.881H124.245V22.073C124.245 23.56 125.469 24.55 127.99 24.55C130.27 24.55 131.629 23.62 131.629 22.073V14.881H134.483V22.3C134.483 25.257 132.097 26.833 127.869 26.833Z" fill="#394149"/>
<path d="M150.109 26.668V18.8L146.41 26.668H143.602L140.008 18.8V26.668H137.293V14.881H140.972L145.048 23.86L149.215 14.881H152.835V26.668H150.109Z" fill="#394149"/>
</svg>
