<svg width="131" height="48" viewBox="0 0 131 48" fill="none" xmlns="http://www.w3.org/2000/svg">
<path d="M13.1848 20.7335C13.1481 21.5903 13.1298 22.6751 13.1298 23.9877C13.1298 25.3003 13.1481 26.3941 13.1848 27.2692C13.2214 28.1261 13.2947 28.8097 13.4047 29.3202C13.533 29.8306 13.7072 30.1861 13.9272 30.3867C14.1655 30.5872 14.4771 30.6875 14.8622 30.6875C15.2471 30.6875 15.5496 30.5872 15.7696 30.3867C16.0079 30.1861 16.182 29.8306 16.2921 29.3202C16.4204 28.8097 16.5028 28.1261 16.5395 27.2692C16.5762 26.3941 16.5945 25.3003 16.5945 23.9877C16.5945 22.6751 16.5762 21.5903 16.5395 20.7335C16.5028 19.8584 16.4204 19.1656 16.2921 18.6552C16.182 18.1447 16.0079 17.7892 15.7696 17.5887C15.5496 17.3881 15.2471 17.2878 14.8622 17.2878C14.4771 17.2878 14.1655 17.3881 13.9272 17.5887C13.7072 17.7892 13.533 18.1447 13.4047 18.6552C13.2947 19.1656 13.2214 19.8584 13.1848 20.7335Z" fill="#394149"/>
<path fill-rule="evenodd" clip-rule="evenodd" d="M14.159 3.6733C7.52854 3.8144 2.25822 9.2556 2.36461 15.85L2.49533 23.9524L2.36461 32.0548C2.25822 38.6493 7.52854 44.0905 14.159 44.2315L22.3076 44.4049L30.4562 44.2315C37.0866 44.0905 42.3571 38.6493 42.2507 32.0548L42.1199 23.9524L42.2507 15.85C42.3571 9.2556 37.0866 3.8144 30.4562 3.6733L22.3076 3.5L14.159 3.6733ZM22.5891 34.2698L19.5093 36.9224L16.7045 33.9143C16.4845 33.9508 16.2645 33.9782 16.0446 33.9964C15.8429 34.0328 15.6137 34.0511 15.3571 34.0511H14.8622C13.5606 34.0511 12.4606 33.8779 11.5623 33.5315C10.6641 33.1851 9.93996 32.6108 9.39002 31.8087C8.84008 30.9883 8.44591 29.94 8.20759 28.6639C7.96927 27.3695 7.85012 25.8107 7.85012 23.9877C7.85012 22.1646 7.96927 20.615 8.20759 19.3388C8.44591 18.0444 8.84008 16.9962 9.39002 16.194C9.93996 15.3736 10.6641 14.7811 11.5623 14.4165C12.4606 14.0336 13.5606 13.8422 14.8622 13.8422C16.1637 13.8422 17.2636 14.0336 18.1619 14.4165C19.0601 14.7811 19.7843 15.3736 20.3343 16.194C20.8842 16.9962 21.2784 18.0444 21.5167 19.3388C21.755 20.615 21.8742 22.1646 21.8742 23.9877C21.8742 25.8654 21.7459 27.4515 21.4892 28.7459C21.2325 30.0403 20.8109 31.0977 20.2243 31.9181L22.5891 34.2698ZM31.2693 21.253V20.1592C31.2693 19.0471 31.1593 18.2905 30.9393 17.8895C30.7194 17.4884 30.3619 17.2878 29.8669 17.2878C29.4819 17.2878 29.1703 17.3881 28.932 17.5887C28.712 17.7892 28.5378 18.1447 28.4095 18.6552C28.2995 19.1656 28.2262 19.8584 28.1895 20.7335C28.1528 21.5903 28.1345 22.6751 28.1345 23.9877C28.1345 25.3003 28.1528 26.3941 28.1895 27.2692C28.2262 28.1261 28.2995 28.8097 28.4095 29.3202C28.5378 29.8306 28.712 30.1861 28.932 30.3867C29.1703 30.5872 29.4819 30.6875 29.8669 30.6875C30.1785 30.6875 30.4352 30.6146 30.6368 30.4687C30.8385 30.3046 30.9943 30.0403 31.1043 29.6757C31.2143 29.3111 31.2876 28.8279 31.3243 28.2263C31.3793 27.6065 31.4068 26.8317 31.4068 25.9019H36.3564V27.3513C36.3564 28.7186 36.1731 29.8398 35.8065 30.7148C35.4398 31.5899 34.9541 32.2827 34.3491 32.7931C33.7441 33.2854 33.0475 33.6135 32.2592 33.7776C31.4893 33.9599 30.6918 34.0511 29.8669 34.0511C28.437 34.0511 27.2638 33.8779 26.3471 33.5315C25.4305 33.1851 24.7156 32.6108 24.2023 31.8087C23.6889 30.9883 23.3314 29.94 23.1298 28.6639C22.9465 27.3695 22.8548 25.8107 22.8548 23.9877C22.8548 22.1281 22.9648 20.5512 23.1848 19.2568C23.4232 17.9624 23.8173 16.9141 24.3673 16.112C24.9172 15.3098 25.6413 14.7355 26.5396 14.3891C27.4378 14.0245 28.547 13.8422 29.8669 13.8422C31.0218 13.8422 32.0026 13.9881 32.8092 14.2798C33.6158 14.5715 34.2666 14.9908 34.7616 15.5377C35.2748 16.0664 35.6415 16.7136 35.8615 17.4793C36.0998 18.2267 36.2189 19.0745 36.2189 20.0225V21.253H31.2693Z" fill="#394149"/>
<path fill-rule="evenodd" clip-rule="evenodd" d="M66.2813 17.4364L70.7643 22.0629L75.2473 17.4364H83.036L74.6528 25.3676L83.036 33.2987H75.2473L70.7643 28.6604L66.2813 33.2987H58.4807L66.8641 25.3676L58.4807 17.4364H66.2813ZM65.8492 25.3676L56.7313 16.7415H66.5794L70.7643 21.0604L74.9492 16.7415H84.4458V16.7297H100.541C104.221 16.6923 107.336 19.7529 107.286 23.4252C107.285 24.7461 106.926 25.9637 106.207 27.0474C105.666 27.8677 104.98 28.5426 104.159 29.0558L107.591 33.4379V30.596C107.591 28.3694 109.264 26.9499 111.189 26.0085C113.132 25.0581 115.585 24.4643 117.627 23.9839L117.63 23.9832L117.653 23.9774C118.912 23.6695 119.984 23.4074 120.747 23.1247C121.133 22.9814 121.387 22.8517 121.532 22.7415C121.55 22.7275 121.565 22.7151 121.578 22.7044C121.534 22.664 121.443 22.6037 121.265 22.5342C120.85 22.3725 120.141 22.2507 119.067 22.2504C117.92 22.2622 116.944 22.355 116.279 22.5872C115.951 22.7017 115.753 22.8321 115.641 22.9545C115.547 23.0596 115.49 23.1843 115.495 23.3799L115.512 24.0915H107.84V23.3966C107.84 21.97 108.122 20.7772 108.685 19.7999C109.251 18.8182 110.075 18.1014 111.081 17.5873C113.054 16.5786 115.772 16.3284 118.803 16.3284C121.906 16.3284 124.482 16.6845 126.306 17.6013C127.229 18.0659 127.979 18.6842 128.495 19.4883C129.012 20.2945 129.265 21.2435 129.265 22.3226C129.265 24.3195 128.054 25.5914 126.569 26.4204C125.127 27.2253 123.312 27.6824 121.804 28.0481H129.004V33.9701H108.007L108.016 33.9819H99.6055L96.5969 30.1107H92.077V33.9819H84.7726L84.7857 33.9937H74.9487L70.7643 29.6643L66.5799 33.9937H56.7313L65.8492 25.3676ZM84.4458 33.6719V17.0632L75.6676 25.3676L84.4458 33.6719ZM96.9418 29.4158L99.9505 33.2869H106.585L103.101 28.8374C103.319 28.7369 103.527 28.6257 103.727 28.5041C104.49 28.0399 105.123 27.4232 105.622 26.6658C106.264 25.698 106.585 24.6122 106.585 23.4202C106.633 20.1391 103.839 17.3892 100.545 17.4246H85.1457V33.2869H91.3761V29.4158H96.9418ZM118.137 28.743C118.355 28.4777 118.75 28.2521 119.275 28.0481C119.894 27.8073 120.69 27.5965 121.585 27.3858C124.653 26.6422 128.566 25.6272 128.566 22.3226C128.566 18.4514 124.951 17.0233 118.803 17.0233C113.022 17.0233 108.922 17.9599 108.566 22.7016C108.549 22.9248 108.54 23.1563 108.54 23.3966H114.795C114.794 23.3704 114.794 23.3446 114.795 23.3192C114.83 21.9093 116.786 21.5786 119.064 21.5554C121.287 21.5554 122.31 22.0511 122.31 22.7239C122.31 23.5543 120.337 24.037 117.859 24.6429L117.792 24.6594C113.677 25.6272 108.291 26.9727 108.291 30.596V33.2751H128.303V28.743H118.137ZM121.617 22.7577C121.617 22.7577 121.613 22.7533 121.611 22.7431C121.617 22.7523 121.617 22.7577 121.617 22.7577ZM99.6428 23.4202C99.6428 23.0487 99.3491 22.7579 98.9751 22.7579H92.077V24.0707H98.9751C99.1762 24.0707 99.317 24.01 99.4427 23.8848C99.5864 23.7422 99.6428 23.5996 99.6428 23.4202ZM100.343 23.4202C100.343 22.6648 99.7363 22.0629 98.9751 22.0629H91.3761V24.7656H98.9751C99.3552 24.7656 99.6769 24.6358 99.9384 24.3762C100.212 24.1047 100.343 23.7861 100.343 23.4202Z" fill="#394149"/>
<path d="M59.0574 44.7423H62.0418V40.6786L65.0317 44.7423H66.5239L69.5139 40.6786V44.7423H72.4983V37.1249H68.7679L65.7779 40.9336L62.7936 37.1249H59.0574V44.7423Z" fill="#394149"/>
<path d="M78.7855 36.9379C75.904 36.9436 73.5462 37.771 73.5575 40.6559V41.2113C73.5462 44.0905 75.904 44.9237 78.7855 44.9293C81.6614 44.9237 84.0194 44.0905 84.0084 41.2113V40.6559C84.0084 37.7767 81.6674 36.9379 78.7855 36.9379ZM81.0239 41.0243C81.041 42.2712 80.0043 42.4979 78.7855 42.5149C77.5614 42.4979 76.5247 42.2712 76.5418 41.0243V40.8373C76.5247 39.596 77.5614 39.3693 78.7855 39.3523C80.0043 39.3693 81.041 39.596 81.0239 40.8373V41.0243Z" fill="#394149"/>
<path d="M92.3686 40.945C92.3686 41.7101 91.9301 42.3392 91.1559 42.3392H87.8868V39.5507H91.1559C91.9301 39.5507 92.3686 40.1741 92.3686 40.945ZM84.9023 37.1363V44.7536H91.7139C93.8156 44.782 95.3762 43.0137 95.3591 40.945C95.3762 38.8649 93.8156 37.1079 91.7139 37.1363H84.9023Z" fill="#394149"/>
<path d="M103.668 41.03C103.685 42.2825 102.649 42.4979 101.43 42.5149C100.206 42.4979 99.1752 42.2825 99.1862 41.03V37.1249H96.2018V41.217C96.1907 44.0962 98.5598 44.9237 101.43 44.9293C104.301 44.9237 106.67 44.0962 106.659 41.217V37.1249H103.668V41.03Z" fill="#394149"/>
<path d="M108.002 37.1249V44.7423H116.961V42.3279H110.986V37.1249H108.002Z" fill="#394149"/>
<path d="M117.98 44.7536H126.94V42.7983H120.965V41.8234H126.94V40.0608H120.965V39.0859H126.94V37.1363H117.98V44.7536Z" fill="#394149"/>
<path d="M60.7757 8.10561V6.50031H65.1991C65.4133 6.50031 65.5999 6.57741 65.7519 6.73861C65.9109 6.89291 65.9869 7.08211 65.9869 7.30641C65.9869 7.52381 65.9109 7.71301 65.7519 7.87431C65.5999 8.02851 65.4133 8.10561 65.1991 8.10561H60.7757ZM57.1542 3.74541V13.1668H60.7757V10.8675H66.1045C68.0189 10.8956 69.6431 9.24821 69.6155 7.30641C69.6431 5.35771 68.0189 3.72431 66.1045 3.74541H57.1542Z" fill="#394149"/>
<path d="M76.824 3.5C73.3269 3.507 70.4656 4.5305 70.4793 8.0986V8.7856C70.4656 12.3467 73.3269 13.3771 76.824 13.3841C80.314 13.3771 83.1758 12.3467 83.1617 8.7856V8.0986C83.1617 4.5375 80.321 3.5 76.824 3.5ZM79.5397 8.5542C79.5608 10.0964 78.3029 10.3768 76.824 10.3979C75.3381 10.3768 74.0802 10.0964 74.101 8.5542V8.3229C74.0802 6.7877 75.3381 6.5073 76.824 6.4863C78.3029 6.5073 79.5608 6.7877 79.5397 8.3229V8.5542Z" fill="#394149"/>
<path d="M97.2817 9.71089L95.1318 3.74539H91.0543L88.8984 9.71089L86.7485 3.74539H82.671L86.7485 13.1668H91.0543L93.0936 8.45609L95.1318 13.1668H99.4376L103.516 3.74539H99.4376L97.2817 9.71089Z" fill="#394149"/>
<path d="M103.793 13.1668H114.664V10.7484H107.414V9.54259H114.664V7.36249H107.414V6.15679H114.664V3.74539H103.793V13.1668Z" fill="#394149"/>
<path d="M116.592 3.7383V13.1598H120.213V10.8605H123.448L125.197 13.1598H129.053L127.028 10.517C127.636 10.2296 128.127 9.795 128.493 9.2272C128.867 8.6524 129.053 8.0075 129.053 7.2994C129.081 5.3506 127.456 3.7173 125.543 3.7383H116.592ZM124.63 6.4933C125.072 6.4933 125.425 6.8508 125.425 7.2994C125.425 7.5167 125.349 7.706 125.19 7.8672C125.038 8.0215 124.851 8.0986 124.63 8.0986H120.213V6.4933H124.63Z" fill="#394149"/>
</svg>
